<svg width="30" height="30" viewBox="0 0 30 30" fill="none" xmlns="http://www.w3.org/2000/svg">
<path d="M22.0312 2.34375H7.96875C6.85025 2.34501 5.77793 2.78989 4.98703 3.58078C4.19614 4.37168 3.75126 5.444 3.75 6.5625V21.5625C3.75126 22.681 4.19614 23.7533 4.98703 24.5442C5.77793 25.3351 6.85025 25.78 7.96875 25.7812H8.43753L7.31255 27.2812C7.20161 27.4289 7.12088 27.5971 7.07494 27.776C7.02901 27.955 7.01879 28.1412 7.04486 28.3241C7.07092 28.507 7.13277 28.6829 7.22686 28.8419C7.32096 29.0009 7.44545 29.1398 7.59324 29.2506C7.74103 29.3615 7.9092 29.4421 8.08817 29.4879C8.26713 29.5337 8.45337 29.5439 8.63624 29.5177C8.81911 29.4915 8.99504 29.4296 9.15396 29.3354C9.31288 29.2412 9.45169 29.1166 9.56245 28.9688L11.9531 25.7812H18.0469L20.4375 28.9688C20.6614 29.2669 20.9945 29.4639 21.3636 29.5165C21.7327 29.5691 22.1075 29.473 22.4058 29.2493C22.704 29.0256 22.9012 28.6926 22.9541 28.3236C23.0069 27.9545 22.911 27.5796 22.6875 27.2812L21.5625 25.7812H22.0312C23.1497 25.78 24.2221 25.3351 25.013 24.5442C25.8039 23.7533 26.2487 22.681 26.25 21.5625V6.5625C26.2487 5.444 25.8039 4.37168 25.013 3.58078C24.2221 2.78989 23.1497 2.34501 22.0312 2.34375ZM7.96875 5.15625H22.0312C22.4041 5.15666 22.7615 5.30495 23.0252 5.56858C23.2888 5.83222 23.4371 6.18966 23.4375 6.5625V13.5938H6.5625V6.5625C6.56291 6.18966 6.7112 5.83222 6.97483 5.56858C7.23847 5.30495 7.59591 5.15666 7.96875 5.15625ZM22.0312 22.9688H7.96875C7.59591 22.9683 7.23847 22.8201 6.97483 22.5564C6.7112 22.2928 6.56291 21.9353 6.5625 21.5625V16.4062H23.4375V21.5625C23.4371 21.9353 23.2888 22.2928 23.0252 22.5564C22.7615 22.8201 22.4041 22.9683 22.0312 22.9688ZM12.1875 19.6875C12.1875 20.0583 12.0775 20.4209 11.8715 20.7292C11.6655 21.0375 11.3726 21.2779 11.03 21.4198C10.6874 21.5617 10.3104 21.5988 9.94671 21.5265C9.58299 21.4541 9.2489 21.2755 8.98668 21.0133C8.72445 20.7511 8.54587 20.417 8.47353 20.0533C8.40118 19.6896 8.43831 19.3126 8.58023 18.97C8.72214 18.6274 8.96246 18.3345 9.27081 18.1285C9.57915 17.9225 9.94166 17.8125 10.3125 17.8125C10.8096 17.8131 11.2862 18.0108 11.6377 18.3623C11.9892 18.7138 12.1869 19.1904 12.1875 19.6875ZM21.5625 19.6875C21.5625 20.0583 21.4525 20.4209 21.2465 20.7292C21.0405 21.0375 20.7476 21.2779 20.405 21.4198C20.0624 21.5617 19.6854 21.5988 19.3217 21.5265C18.958 21.4541 18.6239 21.2755 18.3617 21.0133C18.0995 20.7511 17.9209 20.417 17.8485 20.0533C17.7762 19.6896 17.8133 19.3126 17.9552 18.97C18.0971 18.6274 18.3375 18.3345 18.6458 18.1285C18.9541 17.9225 19.3167 17.8125 19.6875 17.8125C20.1846 17.8131 20.6612 18.0108 21.0127 18.3623C21.3642 18.7138 21.5619 19.1904 21.5625 19.6875Z" fill="#C8A66A"/>
</svg>
