<svg xmlns="http://www.w3.org/2000/svg" id="Layer_1" version="1.1" viewBox="0 0 652.1696168 225"><defs><style>.cls-1,.cls-3{stroke-width:0}.cls-1,.cls-4{fill:#af906e}.cls-3{fill:#fff}</style></defs><path d="M595.09 119.579c5.962-5.777 8.935-12.72 8.935-20.815 0-8.123-2.973-15.066-8.935-20.843-5.931-5.775-13.073-8.678-21.354-8.678-8.279 0-15.408 2.903-21.354 8.678-5.947 5.777-8.92 12.72-8.92 20.843 0 8.096 2.973 15.038 8.92 20.815 5.946 5.79 13.075 8.678 21.354 8.678 8.281 0 15.423-2.888 21.354-8.678m-31.726-6.261c-2.86-4.054-4.281-8.906-4.281-14.554 0-5.747 1.422-10.628 4.281-14.64 2.888-3.998 6.345-6.018 10.372-6.018 4.041 0 7.512 2.02 10.443 6.019 2.916 4.011 4.382 8.892 4.382 14.64 0 5.647-1.466 10.499-4.382 14.553-2.931 4.041-6.402 6.06-10.443 6.06q-6.04 0-10.372-6.06M623.872 142.81c-5.804-5.305-12.832-7.965-21.127-7.965-8.18 0-15.208 2.66-21.128 7.966-5.89 5.336-8.833 11.795-8.833 19.391 0 7.598 2.944 14.056 8.833 19.364 5.92 5.334 12.947 7.995 21.128 7.995 8.295 0 15.323-2.66 21.127-7.995 5.777-5.308 8.693-11.766 8.693-19.364 0-7.596-2.916-14.055-8.693-19.391m-11.082 32.168c-2.761 3.629-6.118 5.463-10.045 5.463-3.941 0-7.27-1.834-10.044-5.463-2.746-3.628-4.14-7.882-4.14-12.776 0-4.893 1.394-9.204 4.14-12.917 2.774-3.728 6.103-5.577 10.044-5.577 3.927 0 7.284 1.849 10.045 5.577 2.759 3.713 4.14 8.024 4.14 12.917s-1.381 9.148-4.14 12.776M646.433 91.388l-12.29.006.011-17.045c.03-.82.282-3.22 2.146-5.746h-19.752c1.848 2.505 2.112 4.882 2.144 5.722v58.37h15.452v-32.423l12.184.006c.703.012 3.2.198 5.842 2.148V89.243c-2.52 1.859-4.91 2.115-5.737 2.145M493.181 78.21c.018-.75.23-3.208 2.147-5.806h-19.776c2.3 3.119 2.147 6.044 2.147 6.044L477.7 97.1h-24.527l-.011-18.886c.019-.76.237-3.21 2.147-5.797h-19.741c1.997 2.706 2.144 5.264 2.148 5.894v.052l-.001.098-.007 52.841c0 3.799 1.067 6.745 3.187 8.864 2.12 2.105 5.036 3.173 8.764 3.173h43.52zm-15.48 56.25h-24.527v-28.498h24.527zM525.363 74.372c.025-.795.262-3.216 2.146-5.769h-19.734c1.826 2.474 2.105 4.82 2.143 5.687v105.145c-.038.867-.317 3.213-2.143 5.687h19.734c-1.884-2.553-2.121-4.974-2.146-5.769zM295.702 159.81l-35.086-.01v-23.306h31.556v-11.01c-.101.083-.797.483-2.063 1.194-1.281.725-2.818 1.038-4.624.952h-54.519v-18.608h59.456V71.15h-76.186l-.01 11.007c2.642-1.95 5.139-2.136 5.841-2.148l54.889.004v20.13l-61.6-.034c1.831 2.466 2.118 4.676 2.15 5.593l-.004 19.397c0 3.799.953 6.644 2.873 8.55 1.907 1.892 4.725 2.845 8.451 2.845h18.169v23.305l-35.073.01s-2.806.259-6.044-2.146v11h97.868v-11c-3.239 2.405-6.044 2.147-6.044 2.147M393.74 74.34c.03-.826.286-3.217 2.145-5.737h-18.802c1.895 2.569 2.124 5.003 2.146 5.782l-.001 22.714h-17.044v11.012c2.643-1.95 5.14-2.136 5.842-2.148h11.202l.001 73.377c-.022.78-.25 3.213-2.146 5.782h18.802c-1.86-2.52-2.115-4.911-2.145-5.738z" class="cls-1"/><path d="M359.78 124.644c-4.467-8.224-6.7-17.969-6.7-29.181V81.279l9.927.014c.855.036 3.215.308 5.703 2.144l-.01-11.021h-46.536l-.018 11.02c2.707-1.997 5.266-2.144 5.895-2.148l9.744-.009v14.184c0 11.212-2.206 20.929-6.615 29.124-4.41 8.18-10.23 13.216-17.458 15.065l7.015 5.82c5.108-.84 10.272-3.984 15.55-9.418 5.25-5.449 8.324-10.57 9.148-15.395.967 4.824 4.084 9.96 9.332 15.451 5.25 5.49 10.387 8.608 15.38 9.362l7.014-5.82c-7.127-1.763-12.904-6.77-17.37-15.008M417.472 74.335c.03-.832.29-3.218 2.145-5.732H400.67c1.912 2.591 2.128 5.043 2.147 5.8v104.919c-.019.757-.235 3.209-2.147 5.8h18.946c-1.856-2.514-2.114-4.9-2.145-5.732z" class="cls-1"/><path d="m79.1 214.835.486 8.781-.665.023zm-.433-.533s-1.675 8.14-1.764 8.483l-1.086.044s2.583-7.517 2.85-8.527m2.683 8.483c-.1-.344-1.764-8.483-1.764-8.483.256 1.01 2.84 8.527 2.84 8.527zm1.973-1.353c-.354-.566-2.494-5.843-3.27-7.784 1.153 2.616 4.39 7.818 4.39 7.818zm-5.133-7.784c.177-.42.31-.676.31-.676-.1.177-.189.41-.31.676-.787 1.94-2.906 7.218-3.26 7.784l-1.131.034s3.248-5.202 4.39-7.818m1.565-.676s.12.255.3.676c-.1-.266-.212-.5-.3-.676m-8.062 6.52s4.735-4.624 6.354-8.061c0 0-2.173 5.322-4.879 8.116zm8.505-8.061c1.618 3.437 6.376 8.06 6.376 8.06l-1.508.056c-2.706-2.794-4.868-8.116-4.868-8.116m-10.8 6.708c-.188 1.929 1.708 2.35 1.708 2.35-.189 1.652 1.507 2.185 1.507 2.185.82 1.596 2.74 1.463 2.74 1.463.93 1.232 3.548.71 3.548.71 1.929.588 3.303-.71 3.303-.71 1.909.433 2.884-1.463 2.884-1.463 2.128-.189 2.573-2.185 2.573-2.185 1.574-.565 1.64-2.35 1.64-2.35-9.902-4.458-10.4-11.41-10.4-11.41-.743 6.697-9.503 11.41-9.503 11.41" class="cls-4"/><path d="M55.226 210.854c-.41-.177-.864-.3-1.286-.344.144-.121.243-.2.366-.31.388-.356.92-.987 1.485-1.764.212.754.433 1.364.61 1.641.3.5 1.02 1.287.433 1.287-.255 0-.743-.133-1.608-.51m46.238-.777c.177-.277.421-.887.588-1.64.566.776 1.12 1.407 1.53 1.763.078.11.2.189.333.31a4.7 4.7 0 0 0-1.297.344c-.854.377-1.32.51-1.598.51-.576 0 .123-.787.444-1.287m-27.909 1.952c2.916-2.494 4.014-5.123 4.225-6.354 0 0-.565 4.158-4.546 7.374-3.992 3.25-7.973 3.283-10.312 3.15-2.352-.123-7.175-1.652-7.94-1.785-.754-.135-1.374-.267-1.586.065l-.144-.277s.777-1.087 1.82-.765c1.019.367 5.687 1.752 7.761 1.875.343 0 .687.021 1.052.021 3.46 0 6.987-.954 9.67-3.304m11.066 1.02c-3.992-3.216-4.524-7.374-4.524-7.374.178 1.23 1.286 3.86 4.18 6.354 2.961 2.595 6.93 3.481 10.745 3.283 2.051-.123 6.742-1.508 7.794-1.875 1.01-.322 1.775.765 1.775.765l-.133.277c-.211-.332-.81-.2-1.597-.065-.754.133-5.588 1.662-7.928 1.785q-.529.032-1.208.033c-2.373 0-5.721-.444-9.104-3.183m-20.147-.143c-1.364-.156-2.872-1.187-4.048-2.573-1.152-1.354-1.608-2.739-1.375-4.048.223-1.308 1.52-1.518 1.52-1.518-.41.154-1.442.398-1.088 2.516.29 1.598 2.507 3.948 4.303 4.679 1.719.688 3.803-.021 3.803-.021-.443.73-1.297.986-2.34.986-.254 0-.51 0-.775-.021m29.583-.944c1.83-.731 4.015-3.081 4.313-4.68.356-2.117-.654-2.36-1.097-2.515 0 0 1.32.21 1.54 1.518.2 1.31-.22 2.694-1.374 4.048-1.164 1.386-2.694 2.417-4.091 2.573-1.354.121-2.551-.079-3.083-.965 0 0 .964.332 2.095.332.544 0 1.154-.077 1.697-.311m-62.183-10.4c1.62 3.415 5.378 8.182 12.175 10.223-9.214-1.94-10.877-7.406-12.175-10.223m94.095 0c-1.298 2.817-2.927 8.282-12.153 10.223 6.776-2.04 10.568-6.808 12.153-10.223m-81.687-.443c.133-.367.422-.421.622-.311.188.088.232.51.065.82-.244.399-.465 1.52-.465 1.52-.355 3.26 2.617 5.643 2.617 5.643-4.823-3.249-2.839-7.672-2.839-7.672m69.07 2.028s-.223-1.12-.445-1.518c-.188-.312-.155-.733.056-.821.166-.11.488-.056.61.31 0 0 1.973 4.424-2.85 7.673 0 0 2.993-2.383 2.628-5.644m-58.801 3.848c.676-1.685.177-2.695-.267-2.794-.698-.167-.798-.832-.432-1.064.377-.212 1.286-.378 1.73-.966.41-.598.622-1.263.898-1.552.31-.333.821-.2.964.177.134.367.433 1.51-.077 3.206-.521 1.729-2.073 5.41-7.818 7.673 0 0 4.425-3.171 5.002-4.68m45.939-2.993c-.489-1.697-.223-2.84-.079-3.206.145-.377.677-.51.966-.177.277.289.52.954.92 1.552.41.588 1.353.754 1.685.966.388.232.299.897-.388 1.064-.465.1-.942 1.109-.288 2.794.598 1.509 4.99 4.68 4.99 4.68-5.722-2.263-7.308-5.944-7.806-7.673m-28.686 5.1c1.908-.81 3.083-1.84 3.948-3.16.831-1.275.997-2.65.942-3.96 0-.986-.7-2.36-.7-2.36s1.054 1.186 1.054 3.005c0 2.04-.709 4.223-2.65 5.942-1.929 1.72-3.592 1.885-4.623 1.83 0 0-1.796-.122-2.318-1.353 0 0 1.22.366 2.55.366.61 0 1.253-.066 1.797-.31m11.664-.533c-1.962-1.719-2.671-3.902-2.671-5.942 0-1.819 1.075-3.006 1.075-3.006s-.676 1.375-.731 2.362c-.034 1.31.165 2.684.975 3.959.854 1.32 2.029 2.35 3.925 3.16 1.764.765 4.37-.056 4.37-.056-.5 1.231-2.33 1.352-2.33 1.352h-.255c-1.042 0-2.572-.242-4.358-1.829m-48.677-7.306c-.942-4.69 1.73-3.45 1.32-2.385 0 0-1.32 4.891 3.315 8.893 0 0-3.737-1.83-4.635-6.508m86.954-2.385c-.398-1.064 2.24-2.305 1.342 2.385-.91 4.679-4.635 6.508-4.635 6.508 4.635-4.002 3.293-8.893 3.293-8.893m-41.77-1.651c-.055.1-.12.165-.165.22l-.223.5s-.486 1.331-.654 3.46c-.154-2.129-.654-3.46-.654-3.46l-.232-.5c-.033-.055-.1-.12-.145-.22.454.044.799.044 1.031.044.212 0 .589 0 1.043-.044m-40.406 6.22c-1.42-5.367 1.12-7.474 2.262-7.107.367.144.665.687.5 1.208-.133.51-1.375.975-1.52 2.915-.277 3.35 1.043 8.206 5.845 9.87 0 0-5.512-1.175-7.087-6.886m77.474-2.984c-.166-1.94-1.374-2.405-1.53-2.915-.156-.521.144-1.064.52-1.208 1.132-.367 3.67 1.74 2.241 7.107-1.563 5.71-7.096 6.886-7.096 6.886 4.833-1.664 6.154-6.52 5.865-9.87m-99.639-4.134s1.874-1.055 3.925.121c2.074 1.154 6.276 6.22 8.05 8.129 1.853 1.994 5.456 5.288 8.394 6.375 2.971 1.12 4.004 1.475 4.968 1.475 0 0-2.628.243-7.241-1.82-4.59-2.061-11.276-10.444-13.472-11.83-2.217-1.387-3.516-1.641-3.793-1.231-.055.1-.244.155-.442.155-.621 0-1.475-.476-.389-1.374m97.71 16.1c.987 0 2.018-.355 4.957-1.475 2.971-1.087 6.552-4.38 8.427-6.375 1.74-1.908 5.987-6.975 8.038-8.129 2.04-1.176 3.903-.121 3.903-.121 1.442 1.219-.533 1.618-.82 1.219-.288-.41-1.575-.156-3.782 1.23-2.195 1.387-8.859 9.77-13.493 11.832-3.671 1.663-6.099 1.82-6.931 1.82zm-89.337-14.45c-1.342-1.342-2.561-2.506-2.939-2.706-.344-.21-.188-.765.422-.542 0 0 2.184 1.774 3.836 3.603.987 1.087 5.7 7.307 7.695 10.035 0 0-7.03-8.428-9.014-10.39m105.005.355c1.608-1.83 3.825-3.603 3.825-3.603.6-.223.744.333.4.542-.354.2-1.585 1.364-2.927 2.707-1.996 1.961-8.993 10.389-8.993 10.389 1.973-2.728 6.708-8.948 7.695-10.035m-69.378.477c-2.839-1.33-2.352-5.256-2.352-5.256s-.233 3.626 2.517 4.89c2.762 1.23 4.79.832 5.511.588.732-.255 1.718-1.12 2.163-1.686.265-.365.52-.942.665-1.464.433.112.854.233 1.275.333.188.212.454.389.743.356.587-.123.765.144.687.654-.055.52-.355.754.1 1.108 0 0-.676-.21-.787-.654-.122-.454-.233-.621-.521-.654-.266-.033-.61 0-.72-.277 0 0-1.298 1.84-2.097 2.284-.477.244-1.441.854-3.06.854-1.053 0-2.417-.256-4.124-1.076m34.882-.366c2.762-1.264 2.529-4.89 2.529-4.89s.477 3.926-2.329 5.256c-4.29 2.04-6.42.655-7.218.222-.788-.444-2.084-2.284-2.084-2.284-.1.277-.456.244-.733.277-.288.033-.41.2-.51.654-.1.443-.798.654-.798.654.433-.354.189-.587.122-1.108-.077-.51.1-.777.676-.654.3.033.555-.144.733-.356.421-.1.831-.221 1.275-.333a4.9 4.9 0 0 0 .665 1.464c.455.566 1.452 1.43 2.173 1.686.333.11.976.244 1.83.244.954 0 2.228-.188 3.67-.832m-32.123-1.098c-1.574-.365-2.173-1.42-2.218-2.417-.055-1.574.899-1.186 1.598-1.674.92.51 1.84.942 2.749 1.331a.53.53 0 0 0-.133.298c-.044.765.698 1.021.555 1.52-.122.41-1.01.986-2.019.986-.165 0-.333 0-.532-.044m26.978-.942c-.133-.499.588-.755.554-1.52a.6.6 0 0 0-.143-.298c.908-.389 1.84-.843 2.76-1.342.688.5 1.652.1 1.596 1.685-.02.997-.642 2.052-2.217 2.417-.177.044-.366.044-.543.044-1.009 0-1.896-.575-2.007-.986m-81.775 2.417s-.722-1.64-.412-3.316c.323-1.685 1.62-3.048 3.094-4.025 0 0-1.563 1.32-2.151 2.517-.466.998-.531 2.462.078 3.749.322.654.266.743.266 1.03 0 .2-.177.333-.399.333-.178 0-.332-.055-.476-.288m138.237-.044c0-.288-.045-.377.265-1.031.633-1.287.566-2.75.1-3.749-.61-1.197-2.151-2.517-2.151-2.517 1.474.977 2.761 2.34 3.072 4.025.333 1.675-.388 3.316-.388 3.316a.53.53 0 0 1-.5.288c-.198 0-.398-.133-.398-.332m-142.274.588s-1.796-.921-1.696-3.516c.077-2.539 1.663-3.925 2.594-4.646.831-.61 2.983-1.652 4.325-1.973 0 0-3.47 1.808-4.69 3.415-1.076 1.452-1.552 3.926-.256 5.51 0 0 .621.644.51 1.021-.066.244-.233.333-.399.333a.56.56 0 0 1-.388-.144m146.399-.189c-.09-.377.52-1.02.52-1.02 1.286-1.585.82-4.059-.233-5.51-1.231-1.608-4.69-3.416-4.69-3.416 1.32.321 3.482 1.363 4.313 1.973.944.72 2.54 2.107 2.595 4.646.1 2.595-1.686 3.516-1.686 3.516a.64.64 0 0 1-.41.144c-.155 0-.32-.089-.41-.333m-97.732-7.973c.821-1.219 1.109-3.636.532-5.622.51.633 1.01 1.243 1.53 1.83a7.8 7.8 0 0 1-.531 3.792c-.876 2.107-3.493 2.107-3.493 2.107.576-.255.987-.62 1.962-2.107m48.356 0a7.83 7.83 0 0 1-.566-3.792 28 28 0 0 0 1.542-1.862c-.565 1.996-.266 4.412.521 5.654.976 1.487 1.376 1.852 1.974 2.107 0 0-2.617 0-3.471-2.107m-68.204.277c.489-4.18 4.192-6.23 5.5-6.475 1.474-.244 4.435-.044 4.701.644 0 0 .189.298-.266.742-.598.61-.964 1.885.266 3.304 0 0 1.354 1.11 2.729.466 0 0-.656 1.642.32 3.105.965 1.474 2.196 1.32 2.972 1.308 0 0 .212 2.784 3.437 1.597 2.252-.82 4.481-3.537 4.67-6.409.221.166.453.355.665.522-.977 1.008-1.53 2.938-1.265 4.779.277 1.885.921 3.093 2.361 4.213 1.376 1.053 3.993 1.762 6.122 1.42 2.106-.323 3.548-1.842 4.125-2.396.121-.11.565-.621.565-.621s.056 1.23.178 1.652c.288.91 1.663 1.032 2.261.876.71-.188 1.22-.51 1.254 1.297.044 1.763-1.697 2.938-2.817 3.471-.898.444-2.893.621-3.803-.1-.998-.798-2.717-1.008-3.648-.244-.977.81-.887 2.629.321 3.826.72.699 2.728 2.04 2.728 2.04-.654.732-3.06.6-4.124.178-1.021-.433-2.23-1.475-2.929-2.928-.698-1.464.112-1.276 1.442-1.364 1.075-.1 1.675-1.108 1.464-2.462-.133-.776-.976-1.773-2.86-2.294-.521-.156-1.098-.156-1.675-.056.056-.765-.023-1.452-.355-2.04-1.641-2.96-4.203-1.764-4.569-.655-.365 1.087-.609 1.497-1.585 1.576-1.009.077-2.717.586-2.717 2.993s3.826 1.974 1.641 2.838c-2.14.82-3.381-.11-3.703-.887-.31-.82-.31-3.104.876-3.925 1.231-.842-1.031-2.883-2.529-2.295-1.496.643-.342-.876.389-1.397.788-.477 1.153-4.956-1.108-4.724 0 0 .065-1.596-.654-2.162-.589-.444-1.41-.654-2.263-.244-.776.354-.987.866-1.574 1.685 0 0-1.886-.531-2.75 1.031 0 0 .055-3.081-1.11-3.204-1.142-.144-1.619.81-2.194 2.595-.355 1.176-.644 2.162-.644 2.162s-.177-.931.155-3.438m79.359-1.785c1.23-1.42.853-2.694.277-3.304-.466-.444-.277-.742-.277-.742.277-.688 3.249-.888 4.713-.644 1.307.244 5 2.296 5.521 6.475.277 2.507.144 3.438.144 3.438s-.288-.986-.665-2.162c-.576-1.786-1.042-2.74-2.195-2.595-1.142.123-1.12 3.204-1.12 3.204-.864-1.562-2.74-1.031-2.74-1.031-.586-.82-.797-1.33-1.563-1.685-.854-.41-1.663-.2-2.284.244-.687.566-.665 2.162-.665 2.162-2.228-.232-1.874 4.247-1.109 4.724.766.52 1.908 2.04.41 1.397-1.496-.588-3.77 1.453-2.55 2.295 1.231.82 1.231 3.106.91 3.925-.322.777-1.586 1.708-3.737.887-2.162-.864 1.663-.431 1.663-2.838s-1.719-2.916-2.706-2.993c-.975-.079-1.219-.489-1.586-1.576-.354-1.109-2.96-2.305-4.589.654-.333.589-.411 1.276-.344 2.04-.588-.1-1.165-.1-1.687.057-1.884.52-2.726 1.518-2.848 2.294-.222 1.354.387 2.362 1.463 2.462 1.33.088 2.118-.1 1.441 1.364-.71 1.453-1.918 2.495-2.915 2.928-1.098.421-3.493.554-4.125-.178 0 0 2.007-1.341 2.738-2.04 1.21-1.197 1.264-3.017.267-3.826-.91-.764-2.606-.554-3.638.244-.875.721-2.883.544-3.77.1-1.142-.533-2.883-1.708-2.827-3.47.056-1.808.554-1.486 1.264-1.298.588.156 1.963.033 2.251-.876.1-.421.189-1.652.189-1.652s.421.51.566.62c.542.555 2.006 2.074 4.123 2.397 2.108.342 4.725-.367 6.11-1.42 1.464-1.12 2.074-2.328 2.362-4.213.278-1.875-.288-3.77-1.264-4.78.233-.166.455-.355.644-.52.21 2.87 2.427 5.588 4.645 6.408 3.304 1.187 3.483-1.597 3.483-1.597.775.012 2.017.166 2.97-1.308.976-1.463.322-3.105.322-3.105.321.133.621.188.92.188 1.009 0 1.808-.654 1.808-.654m-89.914 1.431c-.6-1.43-1.076-3.415-.778-4.735.256-1.219.722-3.094 2.817-3.071 1.576.033 2.384 1.552 2.097 2.229-.267.71-1.231.731-1.687 1.708-.698 1.518-.698 4.779 1.653 8.015a335 335 0 0 0 2.085 2.784s-5.555-5.49-6.187-6.93m106.558 4.146c2.373-3.236 2.339-6.497 1.663-8.015-.422-.977-1.42-.998-1.686-1.708-.265-.677.521-2.196 2.096-2.23 2.096-.022 2.572 1.853 2.816 3.072.3 1.32-.189 3.304-.787 4.735-.61 1.44-6.21 6.93-6.21 6.93s1.298-1.641 2.108-2.784m-96.335-6.985c1.93-3.304 4.513-4.634 6.52-4.99 1.33-.254 3.792.133 4.578.533.545.288.854.72.745.998-.168.365-.589.421-1.066.011-.465-.42-2.96-1.053-4.213-.854-1.242.177-4.324.976-6.531 5.31-1.74 3.406-1.008 7.797-1.008 7.84-.023-.054-.954-5.555.975-8.848m78.405-3.46c-.111-.277.177-.709.743-.997.81-.4 3.238-.787 4.568-.533 1.995.356 4.568 1.686 6.486 4.99 1.952 3.316 1.031 8.849 1.031 8.849s.71-4.413-1.064-7.84c-2.184-4.335-5.277-5.134-6.498-5.31-1.252-.2-3.714.432-4.224.853-.244.199-.466.288-.62.288a.43.43 0 0 1-.422-.3m-60.72-2.76c.222.011.389.022.51.022.1.045.189.077.289.145.122.232.255.42.4.654a10.5 10.5 0 0 0-1.198-.822m54.065.168c.09-.068.19-.1.29-.145.099 0 .276-.011.499-.023-.412.233-.81.533-1.199.822.145-.222.266-.422.41-.654m-86.765 2.826c-1.152-1.973.544-5.133 1.94-3.836 0 0 .456.155 1.042.2-.963.954-1.551 2.339-1.618 4.19 0 0-.055.5-.354.5-.222 0-.533-.232-1.01-1.054m118.878.554c-.056-1.851-.644-3.236-1.597-4.19.587-.045 1.042-.2 1.042-.2 1.363-1.297 3.071 1.863 1.951 3.836-.498.822-.798 1.054-.998 1.054-.32 0-.398-.5-.398-.5m-89.261 3.106c.776-.854 1.175-2.384.476-4.602-.687-2.185-6.13-3.415-6.13-3.415 7.894.676 8.115 4.59 7.75 6.387-.31 1.541-1.664 1.63-2.018 1.63zm58.912-1.63c-.344-1.797-.144-5.71 7.773-6.387 0 0-5.456 1.23-6.154 3.415-.688 2.218-.289 3.748.51 4.602h-.111c-.355 0-1.697-.089-2.018-1.63m-91.012-1.243c-2.152-3.26-1.31-7.306-.644-8.304.765-1.143 1.675-1.575 2.983-1.243 1.264.345 1.508 2.008 1.23 2.574-.265.654-1.817.676-2.471 1.829-.521.942-.489 3.526.121 4.701.333.6 1.343 2.55 2.417 3.826 1.054 1.286 2.672 4.446 2.672 4.446-2.039-3.437-4.158-4.569-6.308-7.829m121.594 3.383c1.063-1.275 2.073-3.227 2.406-3.826.61-1.175.642-3.759.11-4.701-.654-1.153-2.174-1.175-2.472-1.83-.267-.565-.012-2.228 1.23-2.573 1.298-.332 2.24.1 2.994 1.243.665.998 1.507 5.045-.643 8.304-2.152 3.26-4.28 4.392-6.275 7.83 0 0 1.585-3.16 2.65-4.447m-58.98-113.4c-23.518-11.077-48.3.166-53.589 3.293-5.3 3.127-4.557 6.986-.953 10.579 3.625 3.637 10.101 17.597 9.392 33.963-.732 16.388-1.454 37.101-1.454 37.101 1.642 9.936 5.878 15.246 10.047 18.074-2.928.544-5.877 1.818-8.172 3.915-4.879 4.423-4.158 11.398-3.88 14.514 0 0-2.297-2.85-2.94-4.136s-1.198-5.6.289-6.243c0 0 .91-.366.543.832 0 0 .654.51 1.707-.377 1.043-.854.821-3.282.544-3.992-.288-.698-1.463-3.648-4.69-3.504-.688 0-1.342.144-1.94.333.2-.466.343-1.12.343-2.007 0-4.513-8.992-7.385-11.554-1.353-2.584 6.087 1.143 8.094 1.907 8.792 0 0 .72 1.399-.422 1.331-1.186-.065-7.794-.686-11.508 2.883-3.716 3.593-2.606 8.328-1.775 9.846.82 1.509 2.33 2.418 3.715 2.418 1.353 0 2.13-.831 2.13-1.242 0 0 .953.333 1.64.123.698-.212 1.863-.4 2.14-1.231 0 0 1.24 1.84 3.237 1.573 1.985-.277 2.129-1.096 2.484-1.984.333-.887 1.231-1.231 2.34-.343 1.109.898 5.5 6.198 7.23 7.429 1.718 1.24 5.766 4.601 13.128 6.608 4.136 1.131 7.939.577 10.789-.377a2.7 2.7 0 0 0-.389 1.198c-.22 2.074.5 3.193 1.387 3.902 1.308 1.043 2.827.455 2.417-.021-.311-.444-.288-1.542.433-2.096.786-.565 2.218-.088 6.597 1.098 6.43 1.752 14.98-1.22 17.53-7.508.843-1.984 1.176-3.869 1.297-5.488a17.8 17.8 0 0 0 1.276 5.488c2.584 6.287 11.11 9.26 17.552 7.508 4.38-1.186 5.833-1.663 6.576-1.098.732.554.776 1.652.432 2.096-.399.476 1.154 1.064 2.418.021.886-.71 1.63-1.828 1.408-3.902a3 3 0 0 0-.41-1.198c2.86.954 6.686 1.508 10.788.377 7.363-2.007 11.422-5.367 13.173-6.608 1.697-1.231 6.11-6.531 7.186-7.429 1.108-.888 2.03-.544 2.35.343.366.888.499 1.707 2.462 1.984 2.029.268 3.271-1.573 3.271-1.573.254.831 1.43 1.02 2.129 1.23.687.21 1.64-.122 1.64-.122 0 .41.777 1.242 2.14 1.242 1.376 0 2.884-.91 3.715-2.418.842-1.518 1.919-6.253-1.796-9.846-3.714-3.57-10.312-2.948-11.476-2.883-1.165.068-.456-1.33-.456-1.33.777-.699 4.525-2.706 1.941-8.793-2.583-6.032-11.553-3.16-11.553 1.353 0 .887.121 1.541.354 2.007-.61-.189-1.252-.333-1.973-.333-3.227-.144-4.413 2.806-4.68 3.504-.288.71-.52 3.138.555 3.992 1.042.887 1.675.377 1.675.377-.345-1.198.565-.832.565-.832 1.485.644.91 4.957.266 6.243-.643 1.286-2.927 4.136-2.927 4.136.266-3.116 1.02-10.091-3.837-14.514-2.35-2.097-5.278-3.371-8.183-3.915 4.125-2.828 8.371-8.138 10.002-18.074 0 0-.7-20.713-1.454-37.1-.71-16.367 5.8-30.327 9.404-33.964 3.625-3.593 4.357-7.452-.976-10.579-3.593-2.128-16.322-8.05-31.513-8.05-7.03 0-14.603 1.265-22.044 4.758" class="cls-1"/><path d="M20.409 59.4c-1.641 1.751-2.76 3.748-3.216 5.178-.32 1.008-.333 1.441-.333 2.229 0 3.127 2.773 5.688 6.21 5.688 3.404 0 6.199-2.561 6.199-5.688 0-2.895-2.406-5.279-5.478-5.6-.1-.333-.034-.654.377-1.098.754-.787 5.278-3.348 8.039-3.714 2.15-.277 9.57-.665 6.597 1.043-2.937 1.684-3.482 4.734-3.482 4.734l-.066.288c-.1.322-.1.688-.1 1.031 0 1.064.953 1.951 2.084 1.951 1.154 0 2.075-.887 2.075-1.95 0-1.098-.921-1.964-2.075-1.964-.133 0-.233 0-.342.023-.123-.71.21-1.586 1.663-2.506 3.027-1.975 9.025-1.342 13.582-.62 4.558.697 13.052 5.155 15.835 7.228 2.76 2.074 6.53 1.697 8.715-.444 1.874-1.762 1.585-3.47 1.42-4.002-.179-.92-1.032-1.62-2.008-1.62-.166 0-.321.035-.465.056 0 .056.021.09.021.156 0 .931-.698 1.696-1.617 1.897.054.875.698 1.585 1.563 1.795l-.046.09c-.996 2.072-3.027 1.895-4.124 1.784-1.94-.221-2.14-1.32-2.14-1.32.876-.277 1.874-1.253 1.962-2.417.1-1.164-1.518-.898-1.518-.898.732.998-.621 2.418-1.498 2.783-.898.367-7.529-3.127-13.96-5.643-6.431-2.496-14.037-4.47-20.114-4.47-6.608 0-11.432 3.505-13.76 6M103.593 57.87c-6.454 2.516-13.062 6.01-13.971 5.643-.876-.365-2.23-1.785-1.53-2.783 0 0-1.586-.266-1.498.898.079 1.164 1.066 2.14 1.952 2.417 0 0-.165 1.099-2.14 1.32-1.075.11-3.104.288-4.103-1.785l-.044-.089c.854-.21 1.508-.92 1.541-1.795-.887-.201-1.597-.966-1.597-1.897 0-.067.012-.1.012-.156-.133-.021-.3-.055-.455-.055-.997 0-1.83.698-2.018 1.619-.156.533-.432 2.24 1.386 4.002 2.251 2.14 6.022 2.518 8.782.444 2.75-2.073 11.233-6.53 15.823-7.229 4.557-.721 10.545-1.354 13.584.621 1.419.92 1.74 1.796 1.662 2.506-.122-.023-.243-.023-.366-.023-1.13 0-2.073.866-2.073 1.963 0 1.064.942 1.951 2.073 1.951 1.143 0 2.085-.887 2.085-1.95 0-.344 0-.71-.078-1.032l-.11-.288s-.522-3.05-3.47-4.734c-2.94-1.708 4.48-1.32 6.596-1.043 2.783.366 7.318 2.927 8.062 3.714.41.444.466.765.387 1.098-3.093.321-5.466 2.705-5.466 5.6 0 3.127 2.772 5.688 6.176 5.688 3.426 0 6.21-2.561 6.21-5.688 0-.788-.033-1.22-.31-2.229-.466-1.43-1.62-3.427-3.239-5.179-2.35-2.494-7.152-5.998-13.76-5.998-6.076 0-13.672 1.973-20.103 4.469M74.698 31.457c0-3.57 1.884-6.486 4.234-6.486 2.318 0 4.247 2.915 4.247 6.486 0 3.56-1.93 6.453-4.247 6.453-2.35 0-4.234-2.893-4.234-6.453m1.685-24.782c.022 1.441-1.73 1.297-1.73 1.297-2.406-.41-4.846-3.437-4.846-3.437-2.052-.1-5.6 2.805-5.6 2.805 3.338-.665 7.596 2.795 7.596 2.795 4.98 4.933 5.699 21.344-8.56 26.057-11.842 3.914-19.77-2.728-21.966-6.664-1.353-2.473.388-9.436.388-9.436-3.115 5.4-8.881 1.53-8.881 1.53.842.854 4.724 4.846 2.439 10.256-2.583 6.243-7.774 6.897-11.232 6.974-3.504.068-8.095-1.04-9.536-4.777-1.441-3.704.432-8.771.432-8.771-4.846 5.82-9.481 1.84-9.481 1.84l5.944 19.514c1.308-.198 25.657-2.86 30.615-3.713C46.92 42.069 71.049 41.28 79 41.07c7.971.21 31.678 1.574 36.613 2.45 4.944.865 28.663 3.004 29.938 3.227l6.896-19.604s-4.612 3.98-9.47-1.84c0 0 1.876 5.067.445 8.77-1.453 3.738-6.043 4.846-9.58 4.778-3.448-.077-8.627-.73-11.222-6.974-2.272-5.41 1.62-9.402 2.474-10.256 0 0-5.777 3.87-8.893-1.53 0 0 1.75 6.963.377 9.436-2.163 3.936-10.114 10.578-21.977 6.664-14.26-4.713-13.517-21.124-8.56-26.057 0 0 4.257-3.46 7.594-2.795 0 0-3.548-2.905-5.61-2.805 0 0-2.417 3.027-4.823 3.437 0 0-1.763.144-1.72-1.297.023-2.007-1.817-5.81-2.55-6.675-.72.864-2.594 4.668-2.55 6.675" class="cls-4"/><path d="m11.804 49.398.821 2.839c18.407-3.404 41.36-5.434 66.307-5.434 24.384 0 46.916 1.94 65.1 5.223l.82-2.86c-18.317-3.36-41.148-5.367-65.92-5.367-25.292 0-48.598 2.095-67.128 5.6" style="fill:#b3916a"/><path d="M44.97 75.61c-7.618 1.83-13.35 4.69-15.524 5.988-4.88 3.016-4.236 6.687-.887 10.146 2.65 2.705 6.975 11.709 8.339 23.13.32 2.916.465 6.032.32 9.247-.653 15.636-1.319 35.406-1.319 35.406 3.338 20.912 18.34 20.335 18.34 20.335 3.438 6.254 8.272 9.791 12.74 11.787 5.61 2.562 10.723 2.706 11.965 2.706 2.217.01 16.954-.477 24.66-14.493 0 0 15.036.577 18.373-20.335 0 0-.666-19.77-1.341-35.406-.111-3.215.011-6.331.366-9.247 1.319-11.421 5.666-20.425 8.304-23.13 3.35-3.46 4.025-7.13-.876-10.146-4.879-2.939-27.776-13.66-49.486-3.104-6.886-3.338-13.883-4.558-20.392-4.558-4.89 0-9.525.71-13.583 1.675" style="stroke-width:0;fill:#1c2d56"/><path d="M77.047 98.353c.156-.079.267-.2.4-.377.089-.144.189-.312.3-.466.1-.222.154-.41.222-.588a1.5 1.5 0 0 0 .077-.377.6.6 0 0 1-.256-.056 1.2 1.2 0 0 1-.277-.1q-.415-.215-.765-.698a1.88 1.88 0 0 1-.343-1.163v-.133c.022-.046.022-.111.022-.111.044-.433.155-.71.355-.887a1.24 1.24 0 0 1 .61-.345 1 1 0 0 1 .354-.067c.1 0 .2-.021.3-.021.032 0 .055 0 .11.021h.09c.077.023.188.067.265.09.123.033.189.077.267.1.066.043.1.066.143.122.023.01.023.044.023.065h-.023c-.021 0-.077 0-.121-.021-.056-.035-.122-.044-.166-.067-.1-.045-.2-.056-.311-.1h-.333a.98.98 0 0 0-.72.321c-.19.244-.278.512-.29.854v.09c0 .431.09.808.279 1.086.21.31.431.488.665.588.045.022.11.044.154.044a.5.5 0 0 0 .133.022c.035 0 .135-.144.29-.488.177-.288.376-.632.599-1.01.1-.098.154-.21.21-.286.067-.111.122-.211.188-.289.056-.09.11-.155.167-.222.021-.077.077-.122.144-.189.11-.144.244-.298.355-.398.144-.133.288-.245.42-.356a3.4 3.4 0 0 1 .588-.32c.19-.057.377-.112.51-.112.09 0 .19 0 .256.055.077 0 .144.044.21.079a.53.53 0 0 1 .155.265c.045.122.078.266.078.433 0 .277-.1.61-.266.987-.155.377-.477.765-.91 1.164-.31.288-.642.52-.997.665a5.7 5.7 0 0 1-1.009.332c-.278.456-.521.854-.699 1.154a.5.5 0 0 1-.11.189c-.035.044-.1.1-.133.165-.1.167-.267.356-.467.566 0 .034.056.123.1.144.056.067.211.178.267.188.233.145.41.245.643.345.244.1.4.144.62.2.31.065.71.132.876.132.212 0 .566-.044.732-.067.477-.143 1.208-.61 1.42-.942.144-.233.277-.531.3-.799 0 0 .032-.165.032-.2v-.154c0-.167-.055-.344-.1-.444-.077-.133-.144-.21-.188-.288a.7.7 0 0 1-.166-.133c-.055-.011-.1-.056-.1-.056l-.01-.02v-.024h.055s.077 0 .154.044c.078.045.155.1.255.178.112.09.233.21.333.377.056.178.133.3.166.576.011.156.011.3-.01.433a1.7 1.7 0 0 1-.367.765c-.31.366-.699.589-1.24.777-.312.099-.799.166-1.132.221h-.676c-.078 0-.5-.055-.654-.1a4 4 0 0 1-.7-.144c-.21-.067-.366-.132-.576-.21a4 4 0 0 1-.332-.122.6.6 0 0 0-.277-.077c-.1.077-.168.177-.289.22a2 2 0 0 1-.41.167q-.269.067-.688.067h-.321c-.056 0-.089 0-.134-.022-.177 0-.332-.045-.466-.111-.144-.077-.21-.212-.21-.4s.066-.333.21-.466c.134-.121.312-.177.511-.244.022 0 .078-.021.089-.021h.077c.111-.023.222-.044.322-.044.11-.012.232-.012.32-.012.112 0 .235 0 .323.012.1 0 .199.021.266.021.067.023.155.023.232.023m-1.23 1.054a1 1 0 0 0 .41-.079c.156-.088.255-.165.355-.244.022-.044.067-.054.089-.089.022-.032.022-.055.055-.077-.155-.055-.3-.1-.443-.144 0-.023-.023-.023-.056-.023a.2.2 0 0 0-.077-.044c-.078-.021-.156-.021-.244-.054-.067 0-.122-.035-.166-.056h-.133c-.189 0-.323.056-.388.11a.5.5 0 0 0-.1.277v.046l.01.01v.034c.023.11.09.21.21.266.09.044.2.067.322.067.034 0 .067.01.067.01h.089zm3.437-3.228c.09 0 .2 0 .3-.01.11-.012.2-.034.31-.056.233-.1.466-.222.7-.399a2.5 2.5 0 0 0 .63-.644c.111-.11.189-.265.289-.41.078-.155.178-.31.255-.488.111-.221.222-.442.288-.677.077-.198.122-.387.122-.531 0-.056-.022-.067-.033-.123 0-.021-.012-.021-.023-.066-.01-.034-.054-.078-.054-.078-.044 0-.078-.01-.123-.01a.54.54 0 0 0-.254.065c-.079.068-.178.123-.267.19a.7.7 0 0 0-.222.21c-.088.066-.155.145-.22.21a.3.3 0 0 0-.045.09c-.023.022-.045.022-.056.043-.022.012-.022.046-.022.046l-.056.054c-.066.1-.166.212-.244.356-.077.121-.154.254-.233.365-.298.477-.542.899-.754 1.264-.221.433-.321.6-.288.6" class="cls-3"/><path d="M78.932 87.72 46.656 99.14v.809h.165l32.111-11.366 32.279 11.422v-.865z" class="cls-3"/><path d="m78.932 89.349-30.747 10.855v.766h.167l30.58-10.811 30.748 10.877v-.832zM48.185 101.158h61.473v1.108H48.185zM48.185 107.267h61.473v.344H48.185zM48.185 107.878h61.473v.331H48.185zM48.185 108.498h61.473v.356H48.185zM48.617 102.532h60.63v4.436h-60.63zM50.614 109.54h8.15v.854h-8.15zM51.29 110.682h6.797v.654H51.29zM51.556 121.183h6.264v-9.558h-6.264zm1.164-.91h-.499v-7.727h.499zm1.11 0h-.49v-7.727h.49zm1.107 0h-.498v-7.727h.498zm1.12 0h-.499v-7.727h.5zm1.109 0h-.531v-7.727h.53zM99.09 109.54h8.14v.854h-8.14zM99.79 110.682h6.786v.654H99.79zM100.056 121.183h6.231v-9.558h-6.23zm1.131-.91h-.5v-7.727h.5zm1.108 0h-.477v-7.727h.477zm1.11 0h-.477v-7.727h.477zm1.109 0h-.511v-7.727h.511zm1.12 0h-.522v-7.727h.521zM82.936 109.54h8.127v.854h-8.127zM83.635 110.682h6.774v.654h-6.774zM83.9 121.183h6.243v-9.558H83.9zm1.13-.91h-.486v-7.727h.487zm1.099 0h-.477v-7.727h.477zm1.109 0h-.465v-7.727h.465zm1.12 0h-.489v-7.727h.489zm1.11 0h-.5v-7.727h.5zM66.769 109.54h8.16v.854h-8.16zM67.456 110.682h6.786v.654h-6.786zM67.733 121.183h6.255v-9.558h-6.255zm1.12-.91h-.466v-7.727h.466zm1.143 0h-.5v-7.727h.5zm1.109 0h-.5v-7.727h.5zm1.108 0h-.499v-7.727h.5zm1.098 0h-.498v-7.727h.498zM48.64 166.789h60.586v.732H48.64zM46.333 168.452h65.21v1.575h-65.21zM50.614 153.051h8.204v.854h-8.204zM50.79 155.302h7.874v9.258h-7.873zM50.081 154.194h9.214l-.477.852h-8.204zM59.295 165.736h-9.214l.465-.865h8.218zM51.3 152.097h6.853v.666H51.3zM51.556 151.71h6.264v-10.867h-6.264zm1.164-.91h-.499v-9.026h.499zm1.11 0h-.49v-9.026h.49zm1.107 0h-.498v-9.026h.498zm1.12 0h-.499v-9.026h.5zm1.109 0h-.531v-9.026h.53zM99.09 153.051h8.217v.854h-8.216zM99.268 155.302h7.862v9.258h-7.862zM98.581 154.194h9.193l-.467.852h-8.216zM107.774 165.736H98.58l.444-.865h8.205zM99.79 152.097h6.83v.666h-6.83zM100.056 151.71h6.231v-10.867h-6.23zm1.131-.91h-.5v-9.026h.5zm1.108 0h-.477v-9.026h.477zm1.11 0h-.477v-9.026h.477zm1.109 0h-.511v-9.026h.511zm1.12 0h-.522v-9.026h.521zM82.969 153.051h8.16v.854h-8.16zM83.113 155.302h7.84v9.258h-7.84zM82.392 154.194h9.214l-.477.852h-8.16zM91.606 165.736h-9.214l.477-.865h8.194zM83.635 152.097h6.829v.666h-6.83zM83.9 151.71h6.243v-10.867H83.9zm1.13-.91h-.486v-9.026h.487zm1.099 0h-.477v-9.026h.477zm1.109 0h-.465v-9.026h.465zm1.12 0h-.489v-9.026h.489zm1.11 0h-.5v-9.026h.5zM66.802 153.051h8.173v.854h-8.173zM66.969 155.302h7.85v9.258h-7.85zM66.237 154.194h9.203l-.465.852h-8.173zM75.44 165.736h-9.203l.477-.865h8.193zM67.456 152.097h6.853v.666h-6.853zM67.733 151.71h6.255v-10.867h-6.255zm1.12-.91h-.466v-9.026h.466zm1.143 0h-.5v-9.026h.5zm1.109 0h-.5v-9.026h.5zm1.108 0h-.499v-9.026h.5zm1.098 0h-.498v-9.026h.498zM65.061 126.366s3.282-1.631 8.471-1.497c5.2.154 12.774 2.727 18.297 1.974 0 0-4.17 1.23-9.326.332-2.882-.5-9.913-2.573-17.442-.81" class="cls-3"/><path d="M61.8 128.372s3.216-1.752 8.417-1.752c5.179 0 12.84 2.351 18.329 1.397 0 0-4.102 1.364-9.292.633-2.905-.444-9.98-2.263-17.453-.278M53.049 130.002c0-.484 0-1.556-.152-1.945-.19-.504-.778-.504-1.252-.504v-.313c.711 0 1.376.029 2.087.066a43 43 0 0 1 2.211-.066v.313c-.456 0-1.072 0-1.252.504-.143.389-.143 1.461-.143 1.945v4.299c0 1.888.285 2.21 2.145 2.21.702 0 1.49.01 2.078-.38.72-.446.806-1.006.94-1.83h.37l-.124 2.599c-.247-.038-.513-.047-.778-.076-2.505.038-5.02.038-7.534.076v-.332c.474 0 1.062 0 1.252-.513.152-.398.152-1.49.152-1.935zM60.58 133.596c0-1.927 1.678-3.327 3.553-3.327 1.828 0 3.48 1.339 3.48 3.265 0 1.965-1.577 3.366-3.541 3.366-1.89 0-3.492-1.363-3.492-3.304m1.19 0c0 1.54.612 3.017 2.377 3.017 1.701 0 2.227-1.602 2.227-3.053 0-1.44-.587-3.028-2.302-3.028-1.677 0-2.303 1.626-2.303 3.064M73.67 132.346h-.225c-.036-1.102-.75-1.877-1.876-1.877-1.865 0-2.265 1.739-2.265 3.29 0 1.44.538 2.854 2.202 2.854.926 0 1.6-.451 1.6-1.439 0-.638-.261-.763-.824-.826v-.238h2.54v.238c-.513-.013-.613.263-.613.738v1.013c-.7 0-.776.089-1.364.425a3.3 3.3 0 0 1-1.54.376c-1.864 0-3.227-1.25-3.227-3.165 0-1.965 1.363-3.466 3.39-3.466.727 0 1.403.15 1.977.6l.226-.45h.137zM76.226 132.383c0-.312 0-1.039-.112-1.301-.126-.337-.514-.337-.827-.337v-.263h4.818v1.476h-.225c-.175-1.14-.702-1.213-1.702-1.213h-.712c-.152 0-.213 0-.239.05-.026.024-.012.136-.012.362v2.303c1.314.05 1.501-.501 1.577-1.227h.2v2.54h-.2c-.15-1-.639-1.038-1.577-1.038v1.563c0 .289 0 .74.162.99.275.325.863.35 1.252.325 1.013-.013 1.676-.138 1.801-1.302h.213l-.087 1.589h-5.269v-.237c.313 0 .701 0 .827-.351.112-.237.112-.951.112-1.25zM82.022 132.308c0-.3 0-1.025-.076-1.276-.113-.35-.5-.338-.837-.338v-.225c.475 0 .937.063 1.4.063.4 0 .739-.063 1.139-.063 1.026-.013 2.378.25 2.378 1.539 0 .85-.727 1.252-1.44 1.465.54.061 1.052.162 1.415.425.475.3.738.762.738 1.326 0 .663-.376 1.126-.951 1.413-.513.263-1.201.263-1.752.263-.45 0-.85-.062-1.263-.062-.564 0-1.114.062-1.664.062v-.237c.338 0 .724.024.837-.351.076-.237.076-.951.076-1.25zm1 1.089h.313c.439 0 .777 0 1.152-.213.4-.25.487-.675.487-1.126 0-.864-.45-1.313-1.326-1.313-.113 0-.488 0-.563.05-.063.074-.063.336-.063.425zm0 1.614c0 .3 0 .914.113 1.189.15.437.663.413 1.038.413.952 0 1.365-.576 1.365-1.478 0-.524-.188-1.025-.7-1.287-.452-.213-1.015-.188-1.503-.188h-.313zM88.142 132.308c0-.3 0-1.025-.087-1.276-.137-.338-.513-.338-.851-.338v-.225c.488 0 .938.063 1.413.063.464 0 .977-.063 1.452-.063v.225c-.325 0-.688 0-.85.338-.088.25-.088.976-.088 1.276v2.754c0 .299 0 1.013.087 1.25.163.35.526.35.85.35v.238c-.449 0-.937-.062-1.4-.062-.45 0-.976.062-1.464.062v-.237c.338 0 .714 0 .85-.351.088-.237.088-.951.088-1.25zM91.46 132.383c0-.312 0-1.039-.112-1.301-.137-.337-.538-.337-.814-.337v-.263h4.78v1.476h-.212c-.176-1.14-.688-1.213-1.715-1.213h-.7c-.137 0-.226 0-.238.05-.025.024-.025.136-.025.362v2.303c1.339.05 1.552-.501 1.602-1.227h.2c0 .475 0 .914-.025 1.351.025.388.025.814.025 1.19h-.2c-.137-1.002-.639-1.04-1.602-1.04v1.564c0 .289 0 .74.176.99.262.325.863.35 1.263.325 1.001-.013 1.664-.138 1.79-1.302h.224l-.112 1.589h-5.23v-.237c.275 0 .676 0 .813-.351.112-.237.112-.951.112-1.25zM97.7 128.275c-.447-.636-.789-.854-1.576-.864v-.342c.465.02.92.038 1.385.076.38-.038.778-.056 1.148-.076l6.177 7.497h.02v-4.033c0-.636 0-1.652-.133-2.258-.171-.807-.56-.778-1.3-.864v-.342c.569.02 1.072.038 1.604.076a41 41 0 0 1 1.565-.076v.342c-.541.057-.93.01-1.129.646-.133.446-.161 1.955-.161 2.542v6.3h-.446c-.333-.388-.655-.814-.958-1.214l-5.713-6.927h-.038v4.906c0 .522 0 1.623.218 2.126.256.57.75.55 1.262.607v.341c-.541-.018-1.091-.056-1.65-.075-.56.02-1.102.057-1.623.075v-.34c.56-.058 1.1-.106 1.242-.713.105-.521.105-1.442.105-2.021z" class="cls-3"/></svg>