<svg width="36" height="33" viewBox="0 0 36 33" fill="none" xmlns="http://www.w3.org/2000/svg">
<path d="M32.9375 0C31.4667 0 30.3046 0.998194 29.996 2.37071H0.792872C0.363147 2.37071 0 2.74503 0 3.18174V31.256C0 31.6927 0.3692 32.067 0.792872 32.067H31.4062C33.918 32.067 35.8729 30.0706 36 27.388V27.1384V3.24413C36 1.4349 34.5898 0 32.9375 0ZM32.9375 1.55968C33.7969 1.55968 34.4687 2.30832 34.4687 3.24413V24.5181C33.5488 23.9567 32.3262 23.9567 31.4062 24.5181V3.18174C31.4062 2.24594 32.0175 1.55968 32.9375 1.55968ZM5.01748 30.4449V28.0742H14.1991V30.4449H5.01748ZM31.4062 30.4449H15.7303V27.3256C15.7303 26.8889 15.3611 26.5145 14.9314 26.5145H4.22461C3.79489 26.5145 3.43174 26.8889 3.43174 27.3256V30.4449H1.53127V3.93039H29.881V27.3256C29.881 28.0118 30.7404 28.3861 31.1641 27.8871C31.2851 27.7623 31.3457 27.6375 31.3457 27.5127C31.4667 27.0136 31.5272 26.5145 31.8964 26.1402C32.8164 25.142 34.2872 25.9531 34.4082 27.2008C34.4082 29.0724 33.1251 30.4449 31.4062 30.4449Z" fill="#1C2D56"/>
<path d="M26.4491 12.5404H23.3866V9.421C23.3866 8.98429 23.0174 8.60997 22.5877 8.60997H18.7322V7.05029C18.7322 6.61358 18.363 6.23926 17.9394 6.23926H4.22451C3.79479 6.23926 3.43164 6.61358 3.43164 7.05029V17.2194C3.43164 17.6561 3.80084 18.0304 4.22451 18.0304H6.54865V23.5205C6.54865 23.9572 6.91785 24.3315 7.34153 24.3315H14.2595C14.6892 24.3315 15.0524 23.9572 15.0524 23.5205V18.0304H17.3765V28.1995C17.3765 28.6362 17.7457 29.0106 18.1694 29.0106H26.6186C27.0483 29.0106 27.4175 28.6362 27.4175 28.1995V13.289C27.1694 12.8523 26.8062 12.5404 26.437 12.5404H26.4491ZM21.8553 10.1696V12.5404H18.7928V10.1696H21.8553ZM5.01738 7.86132H8.8728V10.9807H5.01738V7.86132ZM13.4061 22.6471H8.0194V17.968H13.4061V22.6471ZM14.205 16.4084H4.95686V12.478H9.55067C9.9804 12.478 10.3496 12.1036 10.3496 11.6669V7.73655H17.2676V10.8559H12.6737C11.6932 10.8559 11.6932 12.4156 12.6737 12.4156H17.2676V16.346H14.205V16.4084ZM25.6502 27.3261H23.3261V20.3388H24.125C25.1055 20.3388 25.1055 18.7791 24.125 18.7791H22.5937C22.164 18.7791 21.8008 19.1534 21.8008 19.5901V27.3885H18.7383V14.1H25.6563V27.3261H25.6502Z" fill="#1C2D56"/>
</svg>
