<svg width="31" height="33" viewBox="0 0 31 33" fill="none" xmlns="http://www.w3.org/2000/svg">
<path d="M20.4706 4.13171H23.2092C23.4748 4.94572 24.2067 5.48839 25.0507 5.48839H28.9993C30.0499 5.48839 31.0002 4.56338 31.0002 3.42253C31.0002 2.28169 30.103 1.35668 28.9993 1.35668H26.2607C25.9951 0.542672 25.2573 0 24.4133 0H20.4647C19.4141 0 18.4697 0.925009 18.4697 2.06585C18.4697 3.2067 19.3669 4.13171 20.4706 4.13171ZM20.4706 1.41218H24.4192C25.3163 1.41218 24.8382 2.76886 25.7354 2.76886H29.0524C29.8964 2.76886 29.8964 4.12554 29.0524 4.12554H25.1038C24.2067 4.12554 24.6848 2.76886 23.7876 2.76886H20.4706C19.5734 2.76886 19.5734 1.41218 20.4706 1.41218Z" fill="#1C2D56"/>
<path d="M5.31364 8.20786C7.10201 8.20786 8.63069 6.68468 8.63069 4.78533C8.63069 2.88598 7.15513 1.36279 5.31364 1.36279C3.47214 1.36279 1.99658 2.87981 1.99658 4.78533C1.99658 6.69085 3.52526 8.20786 5.31364 8.20786ZM5.31364 2.76881C6.36423 2.76881 7.31449 3.69382 7.31449 4.83466C7.31449 5.97551 6.41735 6.90052 5.31364 6.90052C4.20992 6.90052 3.31278 5.97551 3.31278 4.83466C3.31278 3.69382 4.25714 2.76881 5.31364 2.76881Z" fill="#1C2D56"/>
<path d="M30.3094 30.6544H29.6248V25.869C29.6248 25.4867 29.312 25.1599 28.9401 25.1599H28.2555V19.727C28.2555 19.616 28.2023 19.4556 28.1492 19.3446L26.833 17.2788C26.5674 16.8964 25.989 16.8964 25.7293 17.2788L24.4131 19.3446C24.36 19.4556 24.3069 19.5605 24.3069 19.727V25.1599H23.6222V14.6703L26.1484 15.7001C26.5674 15.8604 27.0455 15.5336 27.0455 15.0464V12.0556C27.0455 11.7842 26.8861 11.5684 26.6796 11.4574L15.8903 5.58667C15.6778 5.47567 15.4712 5.47567 15.2587 5.58667L4.20977 11.5191C3.99729 11.6301 3.84383 11.8459 3.84383 12.1172V15.1081C3.84383 15.5398 4.31601 15.9221 4.74097 15.7618L7.32024 14.8368V25.2154H6.63558V19.7825C6.63558 19.6715 6.58246 19.5111 6.52934 19.4001L5.21315 17.3343C4.94755 16.9519 4.36913 16.9519 4.10943 17.3343L2.79323 19.4001C2.74011 19.5111 2.68699 19.616 2.68699 19.7825V25.2154H2.00233C1.63639 25.2154 1.31767 25.5422 1.31767 25.9245V30.7099H0.633014C-0.211005 30.7099 -0.211005 32.0666 0.633014 32.0666H30.2622C31.1594 32.0111 31.1594 30.6544 30.3153 30.6544H30.3094ZM25.7293 19.9983L26.414 18.9685L27.0986 19.9983V25.2154H25.7824V19.9983H25.7293ZM18.0446 27.2319H13.2048V21.577C13.2048 20.2203 14.3085 19.0795 15.6247 19.0795C16.9409 19.0795 18.0446 20.2203 18.0446 21.577V27.2319ZM15.6247 17.7166C13.5707 17.7166 11.8886 19.4556 11.8886 21.577V27.2319H8.57152V14.2941L15.5716 11.0874L22.4123 14.1338V27.2874H19.3608V21.5832C19.3608 19.4618 17.6787 17.7228 15.6247 17.7228V17.7166ZM5.15412 12.4996L15.5716 6.90018L25.8355 12.4996V14.0783L23.3094 13.0484L15.8372 9.73071C15.6778 9.67521 15.4712 9.67521 15.3119 9.73071L7.7334 13.2642L5.15412 14.1338V12.5057V12.4996ZM3.99729 19.9983L4.68195 18.9685L5.3666 19.9983V25.2154H4.05041V19.9983H3.99729ZM2.68109 30.6544V26.5782H7.31434V27.9349C7.31434 28.3172 7.62716 28.6441 7.999 28.6441H23.1559C23.5219 28.6441 23.7875 28.3172 23.7875 27.9349V26.5782H28.4207V30.6544H2.68109Z" fill="#1C2D56"/>
</svg>
