<svg width="30" height="33" viewBox="0 0 30 33" fill="none" xmlns="http://www.w3.org/2000/svg">
<path d="M26.8678 6.70996H19.9982C19.6502 6.70996 19.3535 7.03125 19.3535 7.40197V22.6878C19.3535 23.0586 19.6502 23.3799 19.9982 23.3799H26.8678C27.2158 23.3799 27.5125 23.0586 27.5125 22.6878V7.40197C27.4612 7.03125 27.1645 6.70996 26.8678 6.70996ZM23.1363 14.0625V8.04454H23.7354V14.0625H23.1363ZM26.223 15.3971V16.0891H20.6487V15.3971H26.223ZM26.223 17.3681V18.0601H20.6487V17.3681H26.223ZM20.6487 19.3885H26.223V20.0249H20.6487V19.3885ZM26.223 14.0625H24.9792V8.04454H26.223V14.0625ZM20.6487 8.04454H21.8925V14.0625H20.6487V8.04454ZM20.6487 22.0515V21.3594H26.223V22.0515H20.6487Z" fill="#1C2D56"/>
<path d="M29.3553 4.04699H21.2419V0.692004C21.2419 0.321288 20.9452 0 20.5972 0H10.6466C10.2986 0 10.0019 0.321288 10.0019 0.692004V18.6965H7.51426C7.16622 18.6965 6.86953 19.0178 6.86953 19.3885V25.357C6.86953 25.7277 7.16622 26.049 7.51426 26.049H8.159V30.683H3.82845V28.2301L5.56866 25.7277C5.76835 25.4064 5.717 25.0357 5.42031 24.77C5.12362 24.5044 4.77558 24.6094 4.52453 24.9307L3.7771 25.9934V24.3437L6.01369 22.5334C6.31038 22.3171 6.36173 21.897 6.16204 21.5757C5.96234 21.2544 5.56295 21.205 5.26626 21.4151L3.47471 22.8547L3.12666 21.7364C3.02967 21.3656 2.67592 21.205 2.32788 21.31C1.97984 21.4151 1.83149 21.792 1.92849 22.1627L2.52758 24.078V24.6094L1.03271 23.386C0.736021 23.176 0.38798 23.2254 0.136934 23.5467C-0.0627615 23.868 -0.0114112 24.2387 0.28528 24.5044L2.52187 26.3147V30.683H0.644732C0.296691 30.683 0 31.0043 0 31.375C0 31.7457 0.296691 32.067 0.644732 32.067H29.3553C29.7033 32.067 30 31.7457 30 31.375V4.73899C29.9487 4.36828 29.652 4.04699 29.3553 4.04699ZM19.9981 1.38401V4.04699H17.5105C17.1624 4.04699 16.8657 4.36828 16.8657 4.73899V6.07357H14.3781V4.73899C14.3781 4.36828 14.0814 4.04699 13.7334 4.04699H11.2457V1.38401H20.0038H19.9981ZM25.6238 28.712H11.9418V28.02H25.6238V28.712ZM11.9418 30.0404H25.6238V30.6768H11.9418V30.0404ZM25.6238 26.6854H11.9418V25.9934H25.6752V26.6854H25.6238ZM13.1856 6.07357H11.2971V5.38157H13.1856V6.07357ZM14.4294 10.065V9.37295H16.9171V10.065H14.4294ZM16.9171 11.3995V12.0359H14.4294V11.3439H16.9171V11.3995ZM13.1856 10.065H11.2971V9.37295H13.1856V10.065ZM13.1856 11.3995V12.0359H11.2971V11.3439H13.1856V11.3995ZM13.1856 13.3705V14.0625H11.2971V13.3705H13.1856ZM14.4294 13.3705H16.9171V14.0625H14.4294V13.3705ZM16.9171 8.04455H14.4294V7.35255H16.9171V8.04455ZM13.1856 8.04455H11.2971V7.35255H13.1856V8.04455ZM11.2914 15.3971H13.1799V16.0891H11.2914V15.3971ZM14.4294 15.3971H16.9171V16.0891H14.4294V15.3971ZM16.9171 17.3681V18.7027H14.4294V17.3681H16.9171ZM11.2914 17.3681H13.1799V18.7027H11.2914V17.3681ZM8.21035 20.0311H16.9171V24.7206H8.159V20.0311H8.21035ZM9.45417 30.683V25.9934H10.698V30.683H9.45417ZM26.8676 30.683V25.357C26.8676 24.9863 26.5709 24.665 26.2229 24.665H18.1609V5.38157H28.7105V30.683H26.8676Z" fill="#1C2D56"/>
<path d="M2.28807 7.40241H2.63611C2.78445 8.15002 3.43489 8.73699 4.17662 8.73699H7.30899C8.15342 8.73699 8.8495 7.98937 8.8495 7.0873C8.8495 6.18522 8.15342 5.43761 7.30899 5.43761H5.71713C5.56878 4.69 4.91835 4.10303 4.17662 4.10303H2.28807C1.44364 4.10303 0.747559 4.85064 0.747559 5.75272C0.747559 6.65479 1.44364 7.40241 2.28807 7.40241ZM2.28807 5.382H4.17662C4.32496 5.382 4.47331 5.54264 4.47331 5.70329V5.80832C4.42196 6.02458 4.42196 6.23465 4.57031 6.39529C4.6673 6.55594 4.867 6.66097 5.06669 6.66097H7.30328C7.45163 6.66097 7.59997 6.82162 7.59997 6.98226C7.59997 7.1429 7.45163 7.30355 7.30328 7.30355H4.17091C4.02257 7.30355 3.87422 7.1429 3.87422 6.98226V6.87722C3.92557 6.66715 3.92557 6.4509 3.77723 6.29026C3.68023 6.12961 3.48054 6.02458 3.28084 6.02458H2.28807C2.13972 6.02458 1.99138 5.86393 1.99138 5.70329C1.99138 5.54264 2.08837 5.382 2.28807 5.382Z" fill="#1C2D56"/>
</svg>
