<svg width="34" height="34" viewBox="0 0 34 34" fill="none" xmlns="http://www.w3.org/2000/svg">
<path d="M11.8949 0.416152C11.4434 0.546372 10.8705 1.18013 10.7141 1.71835C10.4537 2.59521 10.5839 3.48091 11.1741 4.70491C11.8341 6.08531 12.8238 7.08389 14.2042 7.76117L14.8641 8.09097H17H19.1359L19.7958 7.76117C21.1762 7.08389 22.166 6.08565 22.8259 4.70491C23.6419 3.01205 23.6161 1.74419 22.7654 0.893512C22.3312 0.459332 21.845 0.268252 21.3762 0.363792C20.8638 0.459332 20.0651 1.08425 19.3273 1.96145C18.6154 2.80363 17.3737 4.60937 17.1741 5.09557C17.035 5.42537 16.9657 5.42537 16.827 5.09557C16.4275 4.12317 14.3351 1.40555 13.58 0.858833C12.8673 0.346793 12.494 0.251252 11.8949 0.416152ZM12.9714 2.50851C13.9523 3.55027 14.8726 4.84397 15.4285 5.93809C15.5761 6.23321 15.6978 6.50249 15.6978 6.52833C15.6978 6.64121 15.4027 6.54567 14.7601 6.22437C14.2219 5.95509 13.9353 5.73817 13.5273 5.29549C12.6677 4.35777 12.086 2.96887 12.2597 2.28275C12.3376 1.95295 12.494 2.00497 12.9714 2.50851ZM21.7403 2.28275C21.8447 2.68225 21.6968 3.29867 21.3323 4.04531C20.8461 5.03505 20.0474 5.84255 19.1444 6.27673C18.7799 6.44163 18.4324 6.57185 18.3631 6.55451C18.2067 6.51983 18.8928 5.26081 19.6653 4.15819C20.299 3.27249 21.3928 2.05699 21.5666 2.05699C21.6274 2.05699 21.7145 2.16137 21.7403 2.28275Z" fill="white"/>
<path d="M2.5007 12.6926V16.2088H9.35952H16.2183V12.6926V9.17661H9.35986H2.5007V12.6926Z" fill="white"/>
<path d="M17.7813 12.6926V16.2088H24.6401H31.499V12.6926V9.17661H24.6401H17.7813V12.6926Z" fill="white"/>
<path d="M4.32413 25.4555V33.66H10.2714H16.2187V25.4555V17.2509H10.2714H4.32413V25.4555Z" fill="white"/>
<path d="M17.7813 25.4555V33.66H23.8153H29.8493V25.4555V17.2509H23.8156H17.7813V25.4555Z" fill="white"/>
</svg>
