<svg width="36" height="32" viewBox="0 0 36 32" fill="none" xmlns="http://www.w3.org/2000/svg">
<path d="M32.9375 0C31.4667 0 30.3046 0.996109 29.996 2.36576H0.792872C0.363147 2.36576 0 2.7393 0 3.1751V31.1907C0 31.6265 0.3692 32 0.792872 32H31.4062C33.918 32 35.8729 30.0078 36 27.3307V27.0817V3.23735C36 1.43191 34.5898 0 32.9375 0ZM32.9375 1.55642C33.7969 1.55642 34.4687 2.3035 34.4687 3.23735V24.4669C33.5488 23.9066 32.3262 23.9066 31.4062 24.4669V3.1751C31.4062 2.24124 32.0175 1.55642 32.9375 1.55642ZM5.01748 30.3813V28.0156H14.1991V30.3813H5.01748ZM31.4062 30.3813H15.7303V27.2685C15.7303 26.8327 15.3611 26.4591 14.9314 26.4591H4.22461C3.79489 26.4591 3.43174 26.8327 3.43174 27.2685V30.3813H1.53127V3.92218H29.881V27.2685C29.881 27.9533 30.7404 28.3268 31.1641 27.8288C31.2851 27.7043 31.3457 27.5798 31.3457 27.4553C31.4667 26.9572 31.5272 26.4591 31.8964 26.0856C32.8164 25.0895 34.2872 25.8988 34.4082 27.144C34.4082 29.0117 33.1251 30.3813 31.4062 30.3813Z" fill="#69392A"/>
<path d="M26.4492 12.5145H23.3867V9.40166C23.3867 8.96586 23.0175 8.59232 22.5878 8.59232H18.7324V7.0359C18.7324 6.6001 18.3632 6.22656 17.9395 6.22656H4.22463C3.79491 6.22656 3.43176 6.6001 3.43176 7.0359V17.1838C3.43176 17.6196 3.80096 17.9931 4.22463 17.9931H6.54878V23.4717C6.54878 23.9075 6.91798 24.281 7.34165 24.281H14.2596C14.6893 24.281 15.0525 23.9075 15.0525 23.4717V17.9931H17.3766V28.141C17.3766 28.5768 17.7458 28.9503 18.1695 28.9503H26.6187C27.0484 28.9503 27.4176 28.5768 27.4176 28.141V13.2616C27.1695 12.8258 26.8063 12.5145 26.4371 12.5145H26.4492ZM21.8554 10.1487V12.5145H18.7929V10.1487H21.8554ZM5.01751 7.84524H8.87292V10.9581H5.01751V7.84524ZM13.4062 22.6001H8.01952V17.9308H13.4062V22.6001ZM14.2051 16.3744H4.95698V12.4522H9.55079C9.98052 12.4522 10.3497 12.0787 10.3497 11.6429V7.72073H17.2677V10.8336H12.6739C11.6934 10.8336 11.6934 12.39 12.6739 12.39H17.2677V16.3122H14.2051V16.3744ZM25.6503 27.2694H23.3262V20.2966H24.1251C25.1056 20.2966 25.1056 18.7402 24.1251 18.7402H22.5938C22.1641 18.7402 21.801 19.1137 21.801 19.5495V27.3316H18.7384V14.0709H25.6564V27.2694H25.6503Z" fill="#69392A"/>
</svg>
