<svg width="30" height="32" viewBox="0 0 30 32" fill="none" xmlns="http://www.w3.org/2000/svg">
<path d="M26.8677 6.69629H19.9982C19.6501 6.69629 19.3534 7.01691 19.3534 7.38685V22.6408C19.3534 23.0107 19.6501 23.3314 19.9982 23.3314H26.8677C27.2157 23.3314 27.5124 23.0107 27.5124 22.6408V7.38685C27.4611 7.01691 27.1644 6.69629 26.8677 6.69629ZM23.1362 14.0335V8.02808H23.7353V14.0335H23.1362ZM26.223 15.3653V16.0558H20.6486V15.3653H26.223ZM26.223 17.3321V18.0227H20.6486V17.3321H26.223ZM20.6486 19.3483H26.223V19.9834H20.6486V19.3483ZM26.223 14.0335H24.9791V8.02808H26.223V14.0335ZM20.6486 8.02808H21.8924V14.0335H20.6486V8.02808ZM20.6486 22.0057V21.3152H26.223V22.0057H20.6486Z" fill="#69392A"/>
<path d="M29.3553 4.03854H21.2419V0.690559C21.2419 0.320617 20.9452 0 20.5972 0H10.6466C10.2986 0 10.0019 0.320617 10.0019 0.690559V18.6574H7.51426C7.16622 18.6574 6.86953 18.978 6.86953 19.348V25.304C6.86953 25.674 7.16622 25.9946 7.51426 25.9946H8.159V30.6189H3.82845V28.1711L5.56866 25.674C5.76835 25.3534 5.717 24.9834 5.42031 24.7183C5.12362 24.4532 4.77558 24.558 4.52453 24.8786L3.7771 25.9391V24.2929L6.01369 22.4863C6.31038 22.2705 6.36173 21.8513 6.16204 21.5306C5.96234 21.21 5.56295 21.1607 5.26626 21.3703L3.47471 22.8069L3.12666 21.6909C3.02967 21.321 2.67592 21.1607 2.32788 21.2655C1.97984 21.3703 1.83149 21.7464 1.92849 22.1164L2.52758 24.0277V24.558L1.03271 23.3372C0.736021 23.1276 0.38798 23.1769 0.136934 23.4975C-0.0627615 23.8181 -0.0114112 24.1881 0.28528 24.4532L2.52187 26.2597V30.6189H0.644732C0.296691 30.6189 0 30.9395 0 31.3094C0 31.6794 0.296691 32 0.644732 32H29.3553C29.7033 32 30 31.6794 30 31.3094V4.72909C29.9487 4.35915 29.652 4.03854 29.3553 4.03854ZM19.9981 1.38112V4.03854H17.5105C17.1624 4.03854 16.8657 4.35915 16.8657 4.72909V6.06089H14.3781V4.72909C14.3781 4.35915 14.0814 4.03854 13.7334 4.03854H11.2457V1.38112H20.0038H19.9981ZM25.6238 28.652H11.9418V27.9615H25.6238V28.652ZM11.9418 29.9776H25.6238V30.6127H11.9418V29.9776ZM25.6238 26.6297H11.9418V25.9391H25.6752V26.6297H25.6238ZM13.1856 6.06089H11.2971V5.37033H13.1856V6.06089ZM14.4294 10.0439V9.35337H16.9171V10.0439H14.4294ZM16.9171 11.3757V12.0108H14.4294V11.3202H16.9171V11.3757ZM13.1856 10.0439H11.2971V9.35337H13.1856V10.0439ZM13.1856 11.3757V12.0108H11.2971V11.3202H13.1856V11.3757ZM13.1856 13.3426V14.0331H11.2971V13.3426H13.1856ZM14.4294 13.3426H16.9171V14.0331H14.4294V13.3426ZM16.9171 8.02774H14.4294V7.33719H16.9171V8.02774ZM13.1856 8.02774H11.2971V7.33719H13.1856V8.02774ZM11.2914 15.3649H13.1799V16.0555H11.2914V15.3649ZM14.4294 15.3649H16.9171V16.0555H14.4294V15.3649ZM16.9171 17.3318V18.6636H14.4294V17.3318H16.9171ZM11.2914 17.3318H13.1799V18.6636H11.2914V17.3318ZM8.21035 19.9892H16.9171V24.669H8.159V19.9892H8.21035ZM9.45417 30.6189V25.9391H10.698V30.6189H9.45417ZM26.8676 30.6189V25.304C26.8676 24.9341 26.5709 24.6135 26.2229 24.6135H18.1609V5.37033H28.7105V30.6189H26.8676Z" fill="#69392A"/>
<path d="M2.28795 7.38721H2.63599C2.78433 8.13326 3.43477 8.719 4.1765 8.719H7.30887C8.15329 8.719 8.84938 7.97295 8.84938 7.07276C8.84938 6.17257 8.15329 5.42652 7.30887 5.42652H5.71701C5.56866 4.68047 4.91822 4.09473 4.1765 4.09473H2.28795C1.44352 4.09473 0.747437 4.84078 0.747437 5.74097C0.747437 6.64116 1.44352 7.38721 2.28795 7.38721ZM2.28795 5.37103H4.1765C4.32484 5.37103 4.47319 5.53134 4.47319 5.69164V5.79646C4.42184 6.01226 4.42184 6.22189 4.57018 6.3822C4.66718 6.54251 4.86687 6.64733 5.06657 6.64733H7.30316C7.45151 6.64733 7.59985 6.80764 7.59985 6.96794C7.59985 7.12825 7.45151 7.28856 7.30316 7.28856H4.17079C4.02245 7.28856 3.8741 7.12825 3.8741 6.96794V6.86313C3.92545 6.65349 3.92545 6.43769 3.77711 6.27739C3.68011 6.11708 3.48041 6.01226 3.28072 6.01226H2.28795C2.1396 6.01226 1.99126 5.85195 1.99126 5.69164C1.99126 5.53134 2.08825 5.37103 2.28795 5.37103Z" fill="#69392A"/>
</svg>
