<svg width="31" height="32" viewBox="0 0 31 32" fill="none" xmlns="http://www.w3.org/2000/svg">
<path d="M20.4704 4.12308H23.2091C23.4747 4.93538 24.2065 5.47692 25.0506 5.47692H28.9992C30.0498 5.47692 31 4.55385 31 3.41538C31 2.27692 30.1029 1.35385 28.9992 1.35385H26.2605C25.9949 0.541538 25.2571 0 24.4131 0H20.4645C19.4139 0 18.4696 0.923077 18.4696 2.06154C18.4696 3.2 19.3667 4.12308 20.4704 4.12308ZM20.4704 1.40923H24.419C25.3162 1.40923 24.8381 2.76308 25.7352 2.76308H29.0523C29.8963 2.76308 29.8963 4.11692 29.0523 4.11692H25.1037C24.2065 4.11692 24.6846 2.76308 23.7875 2.76308H20.4704C19.5733 2.76308 19.5733 1.40923 20.4704 1.40923Z" fill="#69392A"/>
<path d="M5.31348 8.19014C7.10186 8.19014 8.63054 6.67014 8.63054 4.77476C8.63054 2.87938 7.15498 1.35938 5.31348 1.35938C3.47199 1.35938 1.99643 2.87322 1.99643 4.77476C1.99643 6.6763 3.52511 8.19014 5.31348 8.19014ZM5.31348 2.76245C6.36408 2.76245 7.31434 3.68553 7.31434 4.82399C7.31434 5.96245 6.4172 6.88553 5.31348 6.88553C4.20977 6.88553 3.31263 5.96245 3.31263 4.82399C3.31263 3.68553 4.25698 2.76245 5.31348 2.76245Z" fill="#69392A"/>
<path d="M30.3094 30.5906H29.6248V25.8153C29.6248 25.4337 29.312 25.1076 28.9401 25.1076H28.2555V19.686C28.2555 19.5753 28.2023 19.4153 28.1492 19.3045L26.833 17.243C26.5674 16.8614 25.989 16.8614 25.7293 17.243L24.4131 19.3045C24.36 19.4153 24.3069 19.5199 24.3069 19.686V25.1076H23.6222V14.6399L26.1484 15.6676C26.5674 15.8276 27.0455 15.5014 27.0455 15.0153V12.0306C27.0455 11.7599 26.8861 11.5445 26.6796 11.4337L15.8903 5.57526C15.6778 5.4645 15.4712 5.4645 15.2587 5.57526L4.20977 11.4953C3.99729 11.606 3.84383 11.8214 3.84383 12.0922V15.0768C3.84383 15.5076 4.31601 15.8891 4.74097 15.7291L7.32024 14.806V25.163H6.63558V19.7414C6.63558 19.6306 6.58246 19.4706 6.52934 19.3599L5.21315 17.2983C4.94755 16.9168 4.36913 16.9168 4.10943 17.2983L2.79323 19.3599C2.74011 19.4706 2.68699 19.5753 2.68699 19.7414V25.163H2.00233C1.63639 25.163 1.31767 25.4891 1.31767 25.8706V30.646H0.633014C-0.211005 30.646 -0.211005 31.9999 0.633014 31.9999H30.2622C31.1594 31.9445 31.1594 30.5906 30.3153 30.5906H30.3094ZM25.7293 19.9568L26.414 18.9291L27.0986 19.9568V25.163H25.7824V19.9568H25.7293ZM18.0446 27.1753H13.2048V21.5322C13.2048 20.1783 14.3085 19.0399 15.6247 19.0399C16.9409 19.0399 18.0446 20.1783 18.0446 21.5322V27.1753ZM15.6247 17.6799C13.5707 17.6799 11.8886 19.4153 11.8886 21.5322V27.1753H8.57152V14.2645L15.5716 11.0645L22.4123 14.1045V27.2306H19.3608V21.5383C19.3608 19.4214 17.6787 17.686 15.6247 17.686V17.6799ZM5.15412 12.4737L15.5716 6.88603L25.8355 12.4737V14.0491L23.3094 13.0214L15.8372 9.71065C15.6778 9.65526 15.4712 9.65526 15.3119 9.71065L7.7334 13.2368L5.15412 14.1045V12.4799V12.4737ZM3.99729 19.9568L4.68195 18.9291L5.3666 19.9568V25.163H4.05041V19.9568H3.99729ZM2.68109 30.5906V26.523H7.31434V27.8768C7.31434 28.2583 7.62716 28.5845 7.999 28.5845H23.1559C23.5219 28.5845 23.7875 28.2583 23.7875 27.8768V26.523H28.4207V30.5906H2.68109Z" fill="#69392A"/>
</svg>
