<?xml version="1.0" encoding="UTF-8"?>
<svg id="_레이어_1" data-name="레이어_1" xmlns="http://www.w3.org/2000/svg" version="1.1" viewBox="0 0 100 100">
  <!-- Generator: Adobe Illustrator 30.4.0, SVG Export Plug-In . SVG Version: 2.1.4 Build 226)  -->
  <defs>
    <style>
      .st0 {
        fill: #291a16;
      }
    </style>
  </defs>
  <path class="st0" d="M72.64,6.37c-5.61-1.7-13.23-2.57-22.64-2.57s-17.03.86-22.65,2.57c-3.53,1.07-6.08,4.26-6.46,7.95h58.2c-.38-3.68-2.93-6.88-6.46-7.95Z"/>
  <path class="st0" d="M27.7,22.92h17.52c.26,0,.48.21.48.48v15.93c0,.26-.21.48-.48.48h-17.53c-.26,0-.48-.21-.48-.48v-15.93c0-.26.21-.48.48-.48Z"/>
  <path class="st0" d="M79.15,58.45V16.55H20.85v41.9c0,7.29,5.93,13.22,13.22,13.22h.51l-11.17,22.34,4.39,2.19,2.85-5.7h38.7l2.85,5.7,4.39-2.19-11.17-22.34h.51c7.29,0,13.22-5.93,13.22-13.22ZM65.93,62.11c-2.9,0-5.26-2.36-5.26-5.26s2.36-5.25,5.26-5.25,5.25,2.36,5.25,5.25-2.36,5.26-5.25,5.26ZM52.07,23.4c0-1.49,1.22-2.71,2.71-2.71h17.52c1.49,0,2.71,1.21,2.71,2.71v15.93c0,1.49-1.22,2.71-2.71,2.71h-17.52c-1.49,0-2.71-1.21-2.71-2.71v-15.93ZM24.99,39.33v-15.93c0-1.49,1.21-2.71,2.71-2.71h17.52c1.49,0,2.71,1.21,2.71,2.71v15.93c0,1.49-1.22,2.71-2.71,2.71h-17.52c-1.49,0-2.71-1.21-2.71-2.71ZM28.81,56.85c0-2.9,2.36-5.25,5.26-5.25s5.25,2.36,5.25,5.25-2.36,5.26-5.25,5.26-5.26-2.36-5.26-5.26ZM33.1,85.59l2.38-4.76h29.04l2.38,4.76h-33.8ZM62.07,75.92h-24.13l2.13-4.26h19.88l2.13,4.26Z"/>
  <path class="st0" d="M54.78,22.92h17.53c.26,0,.48.21.48.48v15.93c0,.26-.21.48-.48.48h-17.53c-.26,0-.48-.21-.48-.48v-15.93c0-.26.21-.48.48-.48Z"/>
</svg>