<?xml version="1.0" encoding="UTF-8"?>
<svg id="_레이어_1" data-name="레이어_1" xmlns="http://www.w3.org/2000/svg" version="1.1" viewBox="0 0 100 100">
  <!-- Generator: Adobe Illustrator 30.4.0, SVG Export Plug-In . SVG Version: 2.1.4 Build 226)  -->
  <defs>
    <style>
      .st0 {
        fill: #291a16;
        fill-rule: evenodd;
      }
    </style>
  </defs>
  <path class="st0" d="M62.13,49.93l5.41-.71v-9.19l-5.41,1.02v8.88ZM62.13,38.52l5.41-1.02v-8.6l-5.41,1.01v8.6ZM62.13,61.41l5.41-.53v-9.13l-5.41.7v8.96ZM62.13,72.52h5.41v-9.13l-5.41.53v8.61ZM55.05,62.1l4.58-.45v-8.88l-4.58.59v8.73ZM55.05,50.85l4.58-.6v-8.73l-4.58.86v8.47ZM55.05,39.85l4.58-.86v-8.61l-4.58.85v8.61ZM82.77,49.93l-5.41-.71v-9.19l5.41,1.02v8.88ZM82.77,38.52l-5.41-1.02v-8.6l5.41,1.01v8.6ZM82.77,61.41l-5.41-.53v-9.13l5.41.7v8.96ZM82.77,72.52h-5.41v-9.13l5.41.53v8.61ZM89.85,62.1l-4.58-.45v-8.88l4.58.59v8.73ZM89.85,50.85l-4.58-.6v-8.73l4.58.86v8.47ZM89.85,39.85l-4.58-.86v-8.61l4.58.85v8.61ZM89.85,72.52h-4.58v-8.36l4.58.45v7.91ZM17.23,32.72l5.41-.7v-9.19l-5.41,1.02v8.88ZM17.23,21.3l5.41-1.02v-8.6l-5.41,1.01v8.6ZM17.23,44.2l5.41-.53v-9.13l-5.41.7v8.96ZM17.23,55.31h5.41v-9.13l-5.41.53v8.61ZM10.15,44.89l4.58-.45v-8.88l-4.58.59v8.73ZM10.15,33.64l4.58-.6v-8.73l-4.58.86v8.47ZM10.15,22.63l4.58-.86v-8.61l-4.58.85v8.61ZM27.55,1.84l24.73,6.52v16.01l20.18-5.32h0s0,0,0,0l24.73,6.52v72.59h-7.99v-3.83h3.6l-.27-65.93-17.65-4.33v74.09h-4.83V24.07l-17.65,4.33-.11,28.29v37.65h3.45v3.83h-11.44v-3.83h3.45v-47.44l-.11-35.71-17.65-4.33v91.3h-4.83V6.86L7.48,11.19l-.27,83.15h3.6v3.83H2.82V8.36L27.55,1.84h0s0,0,0,0ZM37.87,32.72l-5.41-.7v-9.19l5.41,1.02v8.88ZM37.87,21.3l-5.41-1.02v-8.6l5.41,1.01v8.6ZM37.87,44.2l-5.41-.53v-9.13l5.41.7v8.96ZM37.87,55.31h-5.41v-9.13l5.41.53v8.61ZM44.95,44.89l-4.58-.45v-8.88l4.58.59v8.73ZM44.95,33.64l-4.58-.6v-8.73l4.58.86v8.47ZM44.95,22.63l-4.58-.86v-8.61l4.58.85v8.61ZM44.95,55.31h-4.58v-8.36l4.58.45v7.91ZM10.15,55.31h4.58v-8.36l-4.58.45v7.91ZM17.23,68.89l5.41.53v9.13l-5.41-.7v-8.96ZM17.23,57.78h5.41v9.13l-5.41-.53v-8.61ZM10.15,68.2l4.58.45v8.88l-4.58-.59v-8.73ZM37.87,68.89l-5.41.53v9.13l5.41-.7v-8.96ZM37.87,57.78h-5.41v9.13l5.41-.53v-8.61ZM44.95,68.2l-4.58.45v8.88l4.58-.59v-8.73ZM44.95,57.78h-4.58v8.36l4.58-.45v-7.91ZM10.15,57.78h4.58v8.36l-4.58-.45v-7.91ZM55.05,72.52h4.58v-8.36l-4.58.45v7.91Z"/>
</svg>