<?xml version="1.0" encoding="UTF-8"?>
<svg id="_레이어_1" data-name="레이어_1" xmlns="http://www.w3.org/2000/svg" version="1.1" viewBox="0 0 100 100">
  <!-- Generator: Adobe Illustrator 30.4.0, SVG Export Plug-In . SVG Version: 2.1.4 Build 226)  -->
  <defs>
    <style>
      .st0 {
        fill: #291a16;
      }
    </style>
  </defs>
  <g id="CUSTOM-Group">
    <path class="st0" d="M52.63,15.7h-5.25v5.26h-5.26v5.25h5.26v5.26h5.25v-5.26h5.26v-5.25h-5.26v-5.26Z"/>
    <path class="st0" d="M36.87,36.73h5.25v5.25h-5.25v-5.25Z"/>
    <path class="st0" d="M47.37,36.73h5.25v5.25h-5.25v-5.25Z"/>
    <path class="st0" d="M57.88,36.73h5.25v5.25h-5.25v-5.25Z"/>
    <path class="st0" d="M36.87,47.24h5.25v5.25h-5.25v-5.25Z"/>
    <path class="st0" d="M47.37,47.24h5.25v5.25h-5.25v-5.25Z"/>
    <path class="st0" d="M57.88,47.24h5.25v5.25h-5.25v-5.25Z"/>
    <path class="st0" d="M36.87,57.75h5.25v5.25h-5.25v-5.25Z"/>
    <path class="st0" d="M47.37,57.75h5.25v5.25h-5.25v-5.25Z"/>
    <path class="st0" d="M57.88,57.75h5.25v5.25h-5.25v-5.25Z"/>
    <path class="st0" d="M36.87,68.25h5.25v5.25h-5.25v-5.25Z"/>
    <path class="st0" d="M47.37,68.25h5.25v5.25h-5.25v-5.25Z"/>
    <path class="st0" d="M57.88,68.25h5.25v5.25h-5.25v-5.25Z"/>
    <path class="st0" d="M36.87,78.76h5.25v5.25h-5.25v-5.25Z"/>
    <path class="st0" d="M15.85,57.75h5.25v5.25h-5.25v-5.25Z"/>
    <path class="st0" d="M15.85,68.25h5.25v5.25h-5.25v-5.25Z"/>
    <path class="st0" d="M15.85,78.76h5.25v5.25h-5.25v-5.25Z"/>
    <path class="st0" d="M47.37,78.76h5.25v5.25h-5.25v-5.25Z"/>
    <path class="st0" d="M57.88,78.76h5.25v5.25h-5.25v-5.25Z"/>
    <path class="st0" d="M78.9,57.75h5.25v5.25h-5.25v-5.25Z"/>
    <path class="st0" d="M78.9,68.25h5.25v5.25h-5.25v-5.25Z"/>
    <path class="st0" d="M78.9,78.76h5.25v5.25h-5.25v-5.25Z"/>
    <path class="st0" d="M73.65,47.24v-26.28h-5.25V5.2H31.61v15.77h-5.25v26.28H5.2v47.57h89.61v-47.57h-21.16ZM10.45,89.55v-37.07h15.91v37.07h-15.91ZM68.4,89.55H31.6V26.21h5.25v-15.77h26.28v15.77h5.25v63.34ZM89.55,89.55h-15.91v-37.07h15.91v37.07Z"/>
  </g>
</svg>