<?xml version="1.0" encoding="UTF-8"?>
<svg id="_레이어_1" data-name="레이어_1" xmlns="http://www.w3.org/2000/svg" version="1.1" viewBox="0 0 100 100">
  <!-- Generator: Adobe Illustrator 30.4.0, SVG Export Plug-In . SVG Version: 2.1.4 Build 226)  -->
  <defs>
    <style>
      .st0 {
        fill: #291a16;
      }
    </style>
  </defs>
  <g id="_x31_03_x2C__Delivery_x2C__Logistic_x2C__Order_x2C__Package_x2C__Shipping">
    <g>
      <path class="st0" d="M97.51,25.76L50.73,1.31c-.65-.33-1.3-.33-1.79,0L2.17,25.76c-.65.33-1.14.98-1.14,1.79v69.27c0,1.14.98,2.12,2.12,2.12h93.71c1.14,0,2.12-.98,2.12-2.12V27.55c-.33-.81-.65-1.47-1.47-1.79ZM17.16,74.32h65.19v4.07H17.16v-4.07ZM17.16,66.18h65.19v4.08H17.16v-4.08ZM17.16,58.03h65.19v4.07H17.16v-4.07ZM82.35,53.95H17.16v-4.07h65.19v4.07h0ZM17.16,82.47h65.19v4.07H17.16v-4.07ZM82.35,45.8H17.16v-4.07h65.19v4.07h0ZM17.16,94.7v-4.07h65.19v4.07H17.16ZM94.57,94.7h-8.15v-54.92c0-1.14-.98-2.12-2.12-2.12H15.2c-1.14,0-2.12.98-2.12,2.12v54.92H4.94V28.69L49.76,5.22l44.82,23.31v66.17Z"/>
      <path class="st0" d="M41.61,19.4c0,4.56,3.59,8.15,8.15,8.15s8.15-3.59,8.15-8.15-3.58-8.15-8.15-8.15-8.15,3.59-8.15,8.15ZM53.83,19.4c0,2.28-1.79,4.07-4.07,4.07s-4.07-1.79-4.07-4.07,1.79-4.07,4.07-4.07,4.07,1.79,4.07,4.07Z"/>
    </g>
  </g>
</svg>