<?xml version="1.0" encoding="UTF-8"?>
<svg id="_레이어_1" data-name="레이어_1" xmlns="http://www.w3.org/2000/svg" version="1.1" viewBox="0 0 100 100">
  <!-- Generator: Adobe Illustrator 30.4.0, SVG Export Plug-In . SVG Version: 2.1.4 Build 226)  -->
  <defs>
    <style>
      .st0 {
        fill: #caa862;
      }
    </style>
  </defs>
  <path class="st0" d="M50,100c-13.36,0-25.91-5.2-35.36-14.64C5.2,75.91,0,63.36,0,50S5.2,24.09,14.64,14.64,36.64,0,50,0c5.75,0,11.39.97,16.76,2.88,2.69.96,4.1,3.92,3.14,6.62-.96,2.69-3.92,4.1-6.62,3.14-4.26-1.51-8.73-2.28-13.29-2.28-21.86,0-39.64,17.78-39.64,39.64s17.78,39.64,39.64,39.64,39.64-17.78,39.64-39.64c0-3.54-.47-7.05-1.39-10.44-.75-2.76.88-5.61,3.64-6.36,2.76-.75,5.61.88,6.36,3.64,1.16,4.27,1.75,8.69,1.75,13.15,0,13.36-5.2,25.91-14.64,35.36s-22,14.64-35.36,14.64Z"/>
  <path class="st0" d="M98.48,12.41c-14.79,16.25-28.68,35.43-39.56,54.67-2.27,4.02-6.59,6.43-11.2,6.24-.04,0-.08,0-.12,0-4.48-.18-8.51-2.8-10.48-6.83-3.46-7.09-8.43-14.61-12.86-20.94-1.63-2.32-.85-5.53,1.64-6.89.05-.03.1-.05.15-.08,6.11-3.3,13.74-1.27,17.41,4.61,1.33,2.14,2.6,4.31,3.8,6.53,10.17-14.13,21.63-27.23,34.14-39.05,4.18-3.95,9.99-5.37,15.33-4.05,2.58.64,3.52,3.82,1.73,5.79Z"/>
</svg>