<svg width="30" height="33" viewBox="0 0 30 33" fill="none" xmlns="http://www.w3.org/2000/svg">
<path d="M26.8678 6.69873H19.9982C19.6502 6.69873 19.3535 7.01948 19.3535 7.38958V22.65C19.3535 23.0201 19.6502 23.3408 19.9982 23.3408H26.8678C27.2158 23.3408 27.5125 23.0201 27.5125 22.65V7.38958C27.4612 7.01948 27.1645 6.69873 26.8678 6.69873ZM23.1363 14.039V8.03109H23.7354V14.039H23.1363ZM26.223 15.3714V16.0622H20.6487V15.3714H26.223ZM26.223 17.3391V18.0299H20.6487V17.3391H26.223ZM20.6487 19.3561H26.223V19.9915H20.6487V19.3561ZM26.223 14.039H24.9792V8.03109H26.223V14.039ZM20.6487 8.03109H21.8925V14.039H20.6487V8.03109ZM20.6487 22.0147V21.3238H26.223V22.0147H20.6487Z" fill="#B68B4C"/>
<path d="M29.3553 4.04025H21.2419V0.690851C21.2419 0.320752 20.9452 0 20.5972 0H10.6466C10.2986 0 10.0019 0.320752 10.0019 0.690851V18.6653H7.51426C7.16622 18.6653 6.86953 18.9861 6.86953 19.3562V25.3148C6.86953 25.6849 7.16622 26.0056 7.51426 26.0056H8.159V30.6319H3.82845V28.183L5.56866 25.6849C5.76835 25.3641 5.717 24.994 5.42031 24.7288C5.12362 24.4635 4.77558 24.5684 4.52453 24.8892L3.7771 25.9501V24.3032L6.01369 22.4959C6.31038 22.28 6.36173 21.8605 6.16204 21.5398C5.96234 21.219 5.56295 21.1697 5.26626 21.3794L3.47471 22.8166L3.12666 21.7001C3.02967 21.33 2.67592 21.1697 2.32788 21.2745C1.97984 21.3794 1.83149 21.7557 1.92849 22.1258L2.52758 24.0379V24.5684L1.03271 23.3471C0.736021 23.1374 0.38798 23.1867 0.136934 23.5075C-0.0627615 23.8282 -0.0114112 24.1983 0.28528 24.4635L2.52187 26.2709V30.6319H0.644732C0.296691 30.6319 0 30.9526 0 31.3227C0 31.6928 0.296691 32.0136 0.644732 32.0136H29.3553C29.7033 32.0136 30 31.6928 30 31.3227V4.7311C29.9487 4.361 29.652 4.04025 29.3553 4.04025ZM19.9981 1.3817V4.04025H17.5105C17.1624 4.04025 16.8657 4.361 16.8657 4.7311V6.06346H14.3781V4.7311C14.3781 4.361 14.0814 4.04025 13.7334 4.04025H11.2457V1.3817H20.0038H19.9981ZM25.6238 28.6642H11.9418V27.9733H25.6238V28.6642ZM11.9418 29.9904H25.6238V30.6257H11.9418V29.9904ZM25.6238 26.641H11.9418V25.9501H25.6752V26.641H25.6238ZM13.1856 6.06346H11.2971V5.3726H13.1856V6.06346ZM14.4294 10.0482V9.35734H16.9171V10.0482H14.4294ZM16.9171 11.3805V12.0159H14.4294V11.325H16.9171V11.3805ZM13.1856 10.0482H11.2971V9.35734H13.1856V10.0482ZM13.1856 11.3805V12.0159H11.2971V11.325H13.1856V11.3805ZM13.1856 13.3482V14.0391H11.2971V13.3482H13.1856ZM14.4294 13.3482H16.9171V14.0391H14.4294V13.3482ZM16.9171 8.03115H14.4294V7.3403H16.9171V8.03115ZM13.1856 8.03115H11.2971V7.3403H13.1856V8.03115ZM11.2914 15.3714H13.1799V16.0623H11.2914V15.3714ZM14.4294 15.3714H16.9171V16.0623H14.4294V15.3714ZM16.9171 17.3391V18.6715H14.4294V17.3391H16.9171ZM11.2914 17.3391H13.1799V18.6715H11.2914V17.3391ZM8.21035 19.9977H16.9171V24.6794H8.159V19.9977H8.21035ZM9.45417 30.6319V25.9501H10.698V30.6319H9.45417ZM26.8676 30.6319V25.3148C26.8676 24.9447 26.5709 24.6239 26.2229 24.6239H18.1609V5.3726H28.7105V30.6319H26.8676Z" fill="#B68B4C"/>
<path d="M2.28782 7.39007H2.63587C2.78421 8.13644 3.43465 8.72243 4.17638 8.72243H7.30874C8.15317 8.72243 8.84925 7.97606 8.84925 7.07549C8.84925 6.17491 8.15317 5.42855 7.30874 5.42855H5.71688C5.56854 4.68218 4.9181 4.09619 4.17638 4.09619H2.28782C1.4434 4.09619 0.747314 4.84256 0.747314 5.74313C0.747314 6.64371 1.4434 7.39007 2.28782 7.39007ZM2.28782 5.37303H4.17638C4.32472 5.37303 4.47307 5.53341 4.47307 5.69379V5.79865C4.42172 6.01454 4.42172 6.22426 4.57006 6.38464C4.66706 6.54501 4.86675 6.64987 5.06645 6.64987H7.30304C7.45138 6.64987 7.59973 6.81025 7.59973 6.97063C7.59973 7.131 7.45138 7.29138 7.30304 7.29138H4.17067C4.02232 7.29138 3.87398 7.131 3.87398 6.97063V6.86577C3.92533 6.65604 3.92533 6.44015 3.77698 6.27978C3.67999 6.1194 3.48029 6.01454 3.2806 6.01454H2.28782C2.13948 6.01454 1.99113 5.85416 1.99113 5.69379C1.99113 5.53341 2.08813 5.37303 2.28782 5.37303Z" fill="#B68B4C"/>
</svg>
