<svg width="34" height="34" viewBox="0 0 34 34" fill="none" xmlns="http://www.w3.org/2000/svg">
<path d="M31.605 8.42893C31.605 5.7003 27.951 3.64304 23.105 3.64304C18.259 3.64304 14.605 5.7003 14.605 8.42893C14.605 8.45317 14.6104 8.47608 14.611 8.49999H14.605V12.1427H17.0335V11.8419C18.5532 12.6989 20.6796 13.2142 23.105 13.2142C25.3426 13.2142 27.3195 12.7716 28.8064 12.0308C29.0368 12.2692 29.1766 12.5063 29.1766 12.7141C29.1766 13.6521 26.7551 15.0709 23.105 15.0709H20.6772V17.4994H23.105C25.3429 17.4994 27.3205 17.0568 28.8073 16.3157C29.0381 16.5537 29.1762 16.7908 29.1762 16.9997C29.1762 17.9383 26.7547 19.3571 23.1047 19.3571L22.2451 19.3611C21.7168 19.3657 21.2052 19.3707 20.7064 19.3574L20.647 21.7849C20.914 21.7915 21.1842 21.7939 21.4598 21.7939C21.7231 21.7939 21.9911 21.7922 22.2633 21.7899L23.1047 21.7859C25.3439 21.7859 27.3222 21.3426 28.8093 20.6009C29.0408 20.8409 29.1759 21.0793 29.1759 21.2855C29.1759 22.2242 26.7544 23.6429 23.1044 23.6429H20.6766V26.0714H23.1044C25.3436 26.0714 27.3215 25.6282 28.809 24.8864C29.0408 25.1261 29.1759 25.3645 29.1759 25.571C29.1759 26.5097 26.7544 27.9285 23.1044 27.9285H20.6766V30.3569H23.1044C27.9504 30.3569 31.6044 28.2997 31.6044 25.571C31.6044 25.5485 31.6014 25.5229 31.6007 25.5H31.6044V8.49999H31.5984C31.5994 8.47608 31.605 8.45284 31.605 8.42893ZM17.0335 8.42893C17.0335 7.49028 19.455 6.07151 23.105 6.07151C26.7551 6.07151 29.1766 7.49028 29.1766 8.42893C29.1766 9.36692 26.7551 10.7857 23.105 10.7857C19.455 10.7857 17.0335 9.36692 17.0335 8.42893Z" fill="white"/>
<path d="M10.962 12.1427C6.11604 12.1427 2.46204 14.2 2.46204 16.9286C2.46204 16.9528 2.46735 16.9757 2.46801 16.9997H2.46204V25.4997C2.46204 28.2283 6.11604 30.2856 10.962 30.2856C15.808 30.2856 19.462 28.2283 19.462 25.4997V17H19.4561C19.4567 16.9761 19.462 16.9528 19.462 16.9289C19.462 14.2003 15.808 12.1427 10.962 12.1427ZM4.89051 21.2145C4.89051 21.0046 5.02764 20.7679 5.2584 20.5298C6.74557 21.2712 8.72348 21.7142 10.962 21.7142C13.1996 21.7142 15.1765 21.2716 16.6633 20.5308C16.8938 20.7692 17.0336 21.0063 17.0336 21.2141C17.0336 22.1521 14.6121 23.5709 10.962 23.5709C7.31202 23.5709 4.89051 22.1524 4.89051 21.2145ZM10.962 14.5715C14.6121 14.5715 17.0336 15.9903 17.0336 16.9289C17.0336 17.8669 14.6121 19.2857 10.962 19.2857C7.31202 19.2857 4.89051 17.8669 4.89051 16.9289C4.89051 15.9903 7.31202 14.5715 10.962 14.5715ZM10.962 27.8574C7.31202 27.8574 4.89051 26.4386 4.89051 25.5C4.89051 25.2911 5.02897 25.0541 5.2594 24.816C6.74657 25.5571 8.72381 26 10.962 26C13.1999 26 15.1775 25.5574 16.6643 24.8163C16.8951 25.0544 17.0332 25.2915 17.0332 25.5003C17.0336 26.4386 14.6121 27.8574 10.962 27.8574Z" fill="white"/>
</svg>
