<svg width="36" height="33" viewBox="0 0 36 33" fill="none" xmlns="http://www.w3.org/2000/svg">
<path d="M32.9375 0C31.4667 0 30.3046 0.996531 29.996 2.36676H0.792872C0.363147 2.36676 0 2.74046 0 3.17644V31.2039C0 31.6399 0.3692 32.0136 0.792872 32.0136H31.4062C33.918 32.0136 35.8729 30.0205 36 27.3423V27.0932V3.23873C36 1.43251 34.5898 0 32.9375 0ZM32.9375 1.55708C33.7969 1.55708 34.4687 2.30448 34.4687 3.23873V24.4773C33.5488 23.9167 32.3262 23.9167 31.4062 24.4773V3.17644C31.4062 2.2422 32.0175 1.55708 32.9375 1.55708ZM5.01748 30.3942V28.0274H14.1991V30.3942H5.01748ZM31.4062 30.3942H15.7303V27.28C15.7303 26.8441 15.3611 26.4704 14.9314 26.4704H4.22461C3.79489 26.4704 3.43174 26.8441 3.43174 27.28V30.3942H1.53127V3.92384H29.881V27.28C29.881 27.9652 30.7404 28.3389 31.1641 27.8406C31.2851 27.716 31.3457 27.5915 31.3457 27.4669C31.4667 26.9686 31.5272 26.4704 31.8964 26.0967C32.8164 25.1001 34.2872 25.9098 34.4082 27.1555C34.4082 29.024 33.1251 30.3942 31.4062 30.3942Z" fill="#404040"/>
<path d="M26.4492 12.5191H23.3867V9.40496C23.3867 8.96898 23.0175 8.59528 22.5878 8.59528H18.7324V7.0382C18.7324 6.60221 18.3632 6.22852 17.9395 6.22852H4.22463C3.79491 6.22852 3.43176 6.60221 3.43176 7.0382V17.1904C3.43176 17.6263 3.80096 18 4.22463 18H6.54878V23.481C6.54878 23.9169 6.91798 24.2906 7.34165 24.2906H14.2596C14.6893 24.2906 15.0525 23.9169 15.0525 23.481V18H17.3766V28.1522C17.3766 28.5882 17.7458 28.9619 18.1695 28.9619H26.6187C27.0484 28.9619 27.4176 28.5882 27.4176 28.1522V13.2665C27.1695 12.8305 26.8063 12.5191 26.4371 12.5191H26.4492ZM21.8554 10.1524V12.5191H18.7929V10.1524H21.8554ZM5.01751 7.84788H8.87292V10.962H5.01751V7.84788ZM13.4062 22.609H8.01952V17.9378H13.4062V22.609ZM14.2051 16.3807H4.95698V12.4568H9.55079C9.98052 12.4568 10.3497 12.0831 10.3497 11.6472V7.72331H17.2677V10.8375H12.6739C11.6934 10.8375 11.6934 12.3946 12.6739 12.3946H17.2677V16.3184H14.2051V16.3807ZM25.6503 27.2802H23.3262V20.3045H24.1251C25.1056 20.3045 25.1056 18.7474 24.1251 18.7474H22.5938C22.1641 18.7474 21.801 19.1211 21.801 19.5571V27.3425H18.7384V14.0762H25.6564V27.2802H25.6503Z" fill="#404040"/>
</svg>
