<svg width="22" height="32" viewBox="0 0 22 32" fill="none" xmlns="http://www.w3.org/2000/svg">
<path d="M10.9971 0C4.92113 0 0 5.22537 0 11.6632C0 21.7016 7.49195 29.3088 10.1092 31.6538C10.6199 32.1154 11.3743 32.1154 11.8908 31.6538C14.508 29.3027 22 21.7016 22 11.6632C21.9942 5.22537 17.0731 0 10.9971 0ZM10.9971 19.1412C7.10314 19.1412 3.94619 15.793 3.94619 11.6632C3.94619 7.53339 7.10314 4.18522 10.9971 4.18522C14.8911 4.18522 18.048 7.53339 18.048 11.6632C18.048 15.793 14.8911 19.1412 10.9971 19.1412Z" fill="#404040"/>
</svg>
