<svg width="31" height="33" viewBox="0 0 31 33" fill="none" xmlns="http://www.w3.org/2000/svg">
<path d="M20.4705 4.12482H23.2091C23.4747 4.93748 24.2066 5.47924 25.0506 5.47924H28.9992C30.0498 5.47924 31 4.55578 31 3.41683C31 2.27789 30.1029 1.35442 28.9992 1.35442H26.2606C25.995 0.541768 25.2572 0 24.4132 0H20.4646C19.414 0 18.4696 0.923468 18.4696 2.06241C18.4696 3.20136 19.3667 4.12482 20.4705 4.12482ZM20.4705 1.40983H24.4191C25.3162 1.40983 24.8381 2.76425 25.7353 2.76425H29.0523C29.8963 2.76425 29.8963 4.11867 29.0523 4.11867H25.1037C24.2066 4.11867 24.6847 2.76425 23.7875 2.76425H20.4705C19.5733 2.76425 19.5733 1.40983 20.4705 1.40983Z" fill="#404040"/>
<path d="M5.31351 8.19402C7.10189 8.19402 8.63057 6.67337 8.63057 4.77718C8.63057 2.881 7.15501 1.36035 5.31351 1.36035C3.47202 1.36035 1.99646 2.87484 1.99646 4.77718C1.99646 6.67953 3.52514 8.19402 5.31351 8.19402ZM5.31351 2.76402C6.36411 2.76402 7.31437 3.68749 7.31437 4.82644C7.31437 5.96538 6.41723 6.88885 5.31351 6.88885C4.2098 6.88885 3.31266 5.96538 3.31266 4.82644C3.31266 3.68749 4.25701 2.76402 5.31351 2.76402Z" fill="#404040"/>
<path d="M30.3094 30.6037H29.6248V25.8263C29.6248 25.4446 29.312 25.1183 28.9401 25.1183H28.2555V19.6945C28.2555 19.5837 28.2023 19.4236 28.1492 19.3128L26.833 17.2504C26.5674 16.8687 25.989 16.8687 25.7293 17.2504L24.4131 19.3128C24.36 19.4236 24.3069 19.5283 24.3069 19.6945V25.1183H23.6222V14.6462L26.1484 15.6743C26.5674 15.8344 27.0455 15.5081 27.0455 15.0217V12.0359C27.0455 11.765 26.8861 11.5495 26.6796 11.4387L15.8903 5.57774C15.6778 5.46692 15.4712 5.46692 15.2587 5.57774L4.20977 11.5003C3.99729 11.6111 3.84383 11.8265 3.84383 12.0974V15.0833C3.84383 15.5143 4.31601 15.896 4.74097 15.7359L7.32024 14.8124V25.1737H6.63558V19.7499C6.63558 19.6391 6.58246 19.479 6.52934 19.3682L5.21315 17.3058C4.94755 16.9241 4.36913 16.9241 4.10943 17.3058L2.79323 19.3682C2.74011 19.479 2.68699 19.5837 2.68699 19.7499V25.1737H2.00233C1.63639 25.1737 1.31767 25.5 1.31767 25.8817V30.6591H0.633014C-0.211005 30.6591 -0.211005 32.0136 0.633014 32.0136H30.2622C31.1594 31.9581 31.1594 30.6037 30.3153 30.6037H30.3094ZM25.7293 19.9654L26.414 18.9372L27.0986 19.9654V25.1737H25.7824V19.9654H25.7293ZM18.0446 27.1869H13.2048V21.5414C13.2048 20.187 14.3085 19.0481 15.6247 19.0481C16.9409 19.0481 18.0446 20.187 18.0446 21.5414V27.1869ZM15.6247 17.6875C13.5707 17.6875 11.8886 19.4236 11.8886 21.5414V27.1869H8.57152V14.2707L15.5716 11.0693L22.4123 14.1106V27.2423H19.3608V21.5476C19.3608 19.4298 17.6787 17.6936 15.6247 17.6936V17.6875ZM5.15412 12.4791L15.5716 6.88907L25.8355 12.4791V14.0552L23.3094 13.0271L15.8372 9.71488C15.6778 9.65947 15.4712 9.65947 15.3119 9.71488L7.7334 13.2425L5.15412 14.1106V12.4853V12.4791ZM3.99729 19.9654L4.68195 18.9372L5.3666 19.9654V25.1737H4.05041V19.9654H3.99729ZM2.68109 30.6037V26.5343H7.31434V27.8887C7.31434 28.2704 7.62716 28.5967 7.999 28.5967H23.1559C23.5219 28.5967 23.7875 28.2704 23.7875 27.8887V26.5343H28.4207V30.6037H2.68109Z" fill="#404040"/>
</svg>
