<?xml version="1.0" encoding="UTF-8"?>
<svg id="_레이어_1" data-name="레이어_1" xmlns="http://www.w3.org/2000/svg" version="1.1" viewBox="0 0 60 52">
  <!-- Generator: Adobe Illustrator 30.4.0, SVG Export Plug-In . SVG Version: 2.1.4 Build 226)  -->
  <defs>
    <style>
      .st0 {
        fill: #ac4432;
      }
    </style>
  </defs>
  <g>
    <path class="st0" d="M126.33,10.88h-12.06c-.61,0-1.14.52-1.14,1.12v24.79c0,.6.52,1.12,1.14,1.12h12.06c.61,0,1.14-.52,1.14-1.12V12.01c-.09-.6-.61-1.12-1.14-1.12ZM119.77,22.8v-9.76h1.05v9.76h-1.05ZM125.19,24.96v1.12h-9.79v-1.12h9.79ZM125.19,28.16v1.12h-9.79v-1.12h9.79ZM115.4,31.44h9.79v1.04h-9.79v-1.04ZM125.19,22.8h-2.18v-9.76h2.18v9.76ZM115.4,13.04h2.18v9.76h-2.18v-9.76ZM115.4,35.76v-1.12h9.79v1.12h-9.79Z"/>
    <path class="st0" d="M130.69,6.56h-14.24V1.12c0-.6-.52-1.12-1.14-1.12h-17.48c-.61,0-1.14.52-1.14,1.12v29.2h-4.37c-.61,0-1.14.52-1.14,1.12v9.67c0,.6.52,1.12,1.14,1.12h1.14v7.52h-7.6v-3.97l3.06-4.06c.35-.52.26-1.12-.26-1.56s-1.14-.26-1.57.26l-1.31,1.73v-2.68l3.93-2.94c.52-.35.61-1.04.26-1.56-.35-.52-1.05-.6-1.57-.26l-3.15,2.33-.61-1.81c-.18-.6-.79-.86-1.4-.69-.61.17-.87.78-.7,1.38l1.05,3.11v.86l-2.62-1.99c-.52-.35-1.14-.26-1.57.26-.35.52-.26,1.12.26,1.55l3.93,2.94v7.08h-3.32c-.61,0-1.14.52-1.14,1.12s.52,1.12,1.14,1.12h50.42c.61,0,1.14-.52,1.14-1.12V7.69c-.09-.6-.61-1.12-1.14-1.12ZM114.27,2.25v4.32h-4.37c-.61,0-1.14.52-1.14,1.12v2.16h-4.37v-2.16c0-.6-.52-1.12-1.14-1.12h-4.37V2.25h15.38ZM124.14,46.56h-24.03v-1.12h24.03v1.12ZM100.11,48.72h24.03v1.04h-24.03v-1.04ZM124.14,43.28h-24.03v-1.12h24.12v1.12h-.09ZM102.3,9.85h-3.32v-1.12h3.32v1.12ZM104.48,16.33v-1.12h4.37v1.12h-4.37ZM108.85,18.48v1.04h-4.37v-1.12h4.37v.09ZM102.3,16.33h-3.32v-1.12h3.32v1.12ZM102.3,18.48v1.04h-3.32v-1.12h3.32v.09ZM102.3,21.68v1.12h-3.32v-1.12h3.32ZM104.48,21.68h4.37v1.12h-4.37v-1.12ZM108.85,13.04h-4.37v-1.12h4.37v1.12ZM102.3,13.04h-3.32v-1.12h3.32v1.12ZM98.97,24.96h3.32v1.12h-3.32v-1.12ZM104.48,24.96h4.37v1.12h-4.37v-1.12ZM108.85,28.16v2.16h-4.37v-2.16h4.37ZM98.97,28.16h3.32v2.16h-3.32v-2.16ZM93.56,32.48h15.29v7.6h-15.38v-7.6h.09ZM95.74,49.75v-7.6h2.18v7.6h-2.18ZM126.33,49.75v-8.64c0-.6-.52-1.12-1.14-1.12h-14.16V8.72h18.52v41.03h-3.23Z"/>
    <path class="st0" d="M83.16,12.01h.61c.26,1.21,1.4,2.16,2.71,2.16h5.5c1.49,0,2.71-1.21,2.71-2.68s-1.22-2.68-2.71-2.68h-2.8c-.26-1.21-1.4-2.16-2.71-2.16h-3.32c-1.49,0-2.71,1.21-2.71,2.68s1.22,2.68,2.71,2.68ZM83.16,8.72h3.32c.26,0,.52.26.52.52v.17c-.09.35-.09.69.18.95.17.26.52.43.87.43h3.93c.26,0,.52.26.52.52s-.26.52-.52.52h-5.5c-.26,0-.52-.26-.52-.52v-.17c.09-.35.09-.69-.17-.95-.17-.26-.52-.43-.87-.43h-1.75c-.26,0-.52-.26-.52-.52s.17-.52.52-.52Z"/>
  </g>
  <rect class="st0" x="-119.96" y="-43.35" width="100" height="100"/>
  <g>
    <path class="st0" d="M54.68.3c-2.43,0-4.35,1.6-4.86,3.8H1.57c-.71,0-1.31.6-1.31,1.3v45c0,.7.61,1.3,1.31,1.3h50.58c4.15,0,7.38-3.2,7.59-7.5v-.4h0V5.5c0-2.9-2.33-5.2-5.06-5.2ZM54.68,2.8c1.42,0,2.53,1.2,2.53,2.7v34.1c-1.52-.9-3.54-.9-5.06,0V5.4c0-1.5,1.01-2.6,2.53-2.6ZM8.55,49.1v-3.8h15.17v3.8h-15.17ZM52.15,49.1h-25.9v-5c0-.7-.61-1.3-1.32-1.3H7.24c-.71,0-1.31.6-1.31,1.3v5h-3.14V6.6h46.84v37.5c0,1.1,1.42,1.7,2.12.9.2-.2.3-.4.3-.6.2-.8.3-1.6.91-2.2,1.52-1.6,3.95-.3,4.15,1.7,0,3-2.12,5.2-4.96,5.2Z"/>
    <path class="st0" d="M43.96,20.4h-5.06v-5c0-.7-.61-1.3-1.32-1.3h-6.37v-2.5c0-.7-.61-1.3-1.31-1.3H7.24c-.71,0-1.31.6-1.31,1.3v16.3c0,.7.61,1.3,1.31,1.3h3.84v8.8c0,.7.61,1.3,1.31,1.3h11.43c.71,0,1.31-.6,1.31-1.3v-8.8h3.84v16.3c0,.7.61,1.3,1.31,1.3h13.96c.71,0,1.32-.6,1.32-1.3v-23.9c-.41-.7-1.01-1.2-1.62-1.2ZM36.37,16.6v3.8h-5.06v-3.8h5.06ZM8.55,12.9h6.37v5h-6.37v-5ZM22.41,36.6h-8.9v-7.5h8.9v7.5ZM23.73,26.6h-15.28v-6.3h7.59c.71,0,1.32-.6,1.32-1.3v-6.3h11.43v5h-7.59c-1.62,0-1.62,2.5,0,2.5h7.59v6.3h-5.06v.1ZM42.64,44.1h-3.84v-11.2h1.32c1.62,0,1.62-2.5,0-2.5h-2.53c-.71,0-1.31.6-1.31,1.3v12.5h-5.06v-21.3h11.43v21.2Z"/>
  </g>
</svg>