<?xml version="1.0" encoding="UTF-8"?>
<svg id="_레이어_1" data-name="레이어_1" xmlns="http://www.w3.org/2000/svg" version="1.1" viewBox="0 0 60 52">
  <!-- Generator: Adobe Illustrator 30.4.0, SVG Export Plug-In . SVG Version: 2.1.4 Build 226)  -->
  <defs>
    <style>
      .st0 {
        fill: #ac4432;
      }
    </style>
  </defs>
  <g>
    <path class="st0" d="M-75.46,345.88h-12.06c-.61,0-1.14.52-1.14,1.12v24.79c0,.6.52,1.12,1.14,1.12h12.06c.61,0,1.14-.52,1.14-1.12v-24.79c-.09-.6-.61-1.12-1.14-1.12ZM-82.01,357.8v-9.76h1.05v9.76h-1.05ZM-76.6,359.96v1.12h-9.79v-1.12h9.79ZM-76.6,363.15v1.12h-9.79v-1.12h9.79ZM-86.38,366.43h9.79v1.04h-9.79v-1.04ZM-76.6,357.8h-2.18v-9.76h2.18v9.76ZM-86.38,348.04h2.18v9.76h-2.18v-9.76ZM-86.38,370.75v-1.12h9.79v1.12h-9.79Z"/>
    <path class="st0" d="M-71.09,341.56h-14.24v-5.44c0-.6-.52-1.12-1.14-1.12h-17.48c-.61,0-1.14.52-1.14,1.12v29.2h-4.37c-.61,0-1.14.52-1.14,1.12v9.67c0,.6.52,1.12,1.14,1.12h1.14v7.52h-7.6v-3.97l3.06-4.06c.35-.52.26-1.12-.26-1.56s-1.14-.26-1.57.26l-1.31,1.73v-2.68l3.93-2.94c.52-.35.61-1.04.26-1.56-.35-.52-1.05-.6-1.57-.26l-3.15,2.33-.61-1.81c-.18-.6-.79-.86-1.4-.69-.61.17-.87.78-.7,1.38l1.05,3.11v.86l-2.62-1.99c-.52-.35-1.14-.26-1.57.26-.35.52-.26,1.12.26,1.55l3.93,2.94v7.08h-3.32c-.61,0-1.14.52-1.14,1.12s.52,1.12,1.14,1.12h50.42c.61,0,1.14-.52,1.14-1.12v-43.19c-.09-.6-.61-1.12-1.14-1.12ZM-87.52,337.24v4.32h-4.37c-.61,0-1.14.52-1.14,1.12v2.16h-4.37v-2.16c0-.6-.52-1.12-1.14-1.12h-4.37v-4.32h15.38ZM-77.65,381.55h-24.03v-1.12h24.03v1.12ZM-101.68,383.71h24.03v1.04h-24.03v-1.04ZM-77.65,378.27h-24.03v-1.12h24.12v1.12h-.09ZM-99.49,344.84h-3.32v-1.12h3.32v1.12ZM-97.31,351.32v-1.12h4.37v1.12h-4.37ZM-92.94,353.48v1.04h-4.37v-1.12h4.37v.09ZM-99.49,351.32h-3.32v-1.12h3.32v1.12ZM-99.49,353.48v1.04h-3.32v-1.12h3.32v.09ZM-99.49,356.67v1.12h-3.32v-1.12h3.32ZM-97.31,356.67h4.37v1.12h-4.37v-1.12ZM-92.94,348.04h-4.37v-1.12h4.37v1.12ZM-99.49,348.04h-3.32v-1.12h3.32v1.12ZM-102.81,359.96h3.32v1.12h-3.32v-1.12ZM-97.31,359.96h4.37v1.12h-4.37v-1.12ZM-92.94,363.15v2.16h-4.37v-2.16h4.37ZM-102.81,363.15h3.32v2.16h-3.32v-2.16ZM-108.23,367.47h15.29v7.6h-15.38v-7.6h.09ZM-106.04,384.75v-7.6h2.18v7.6h-2.18ZM-75.46,384.75v-8.64c0-.6-.52-1.12-1.14-1.12h-14.16v-31.27h18.52v41.03h-3.23Z"/>
    <path class="st0" d="M-118.63,347h.61c.26,1.21,1.4,2.16,2.71,2.16h5.5c1.49,0,2.71-1.21,2.71-2.68s-1.22-2.68-2.71-2.68h-2.8c-.26-1.21-1.4-2.16-2.71-2.16h-3.32c-1.49,0-2.71,1.21-2.71,2.68s1.22,2.68,2.71,2.68ZM-118.63,343.72h3.32c.26,0,.52.26.52.52v.17c-.09.35-.09.69.18.95.17.26.52.43.87.43h3.93c.26,0,.52.26.52.52s-.26.52-.52.52h-5.5c-.26,0-.52-.26-.52-.52v-.17c.09-.35.09-.69-.17-.95-.17-.26-.52-.43-.87-.43h-1.75c-.26,0-.52-.26-.52-.52s.17-.52.52-.52Z"/>
  </g>
  <rect class="st0" x="-119.96" y="-43.35" width="100" height="100"/>
  <g>
    <path class="st0" d="M-107.96,399.99c-2.43,0-4.35,1.6-4.86,3.8h-48.25c-.71,0-1.31.6-1.31,1.3v45c0,.7.61,1.3,1.31,1.3h50.58c4.15,0,7.38-3.2,7.59-7.5v-.4h0v-38.3c0-2.9-2.33-5.2-5.06-5.2ZM-107.96,402.49c1.42,0,2.53,1.2,2.53,2.7v34.1c-1.52-.9-3.54-.9-5.06,0v-34.2c0-1.5,1.01-2.6,2.53-2.6ZM-154.09,448.79v-3.8h15.17v3.8h-15.17ZM-110.49,448.79h-25.9v-5c0-.7-.61-1.3-1.32-1.3h-17.7c-.71,0-1.31.6-1.31,1.3v5h-3.14v-42.5h46.84v37.5c0,1.1,1.42,1.7,2.12.9.2-.2.3-.4.3-.6.2-.8.3-1.6.91-2.2,1.52-1.6,3.95-.3,4.15,1.7,0,3-2.12,5.2-4.96,5.2Z"/>
    <path class="st0" d="M-118.68,420.09h-5.06v-5c0-.7-.61-1.3-1.32-1.3h-6.37v-2.5c0-.7-.61-1.3-1.31-1.3h-22.66c-.71,0-1.31.6-1.31,1.3v16.3c0,.7.61,1.3,1.31,1.3h3.84v8.8c0,.7.61,1.3,1.31,1.3h11.43c.71,0,1.31-.6,1.31-1.3v-8.8h3.84v16.3c0,.7.61,1.3,1.31,1.3h13.96c.71,0,1.32-.6,1.32-1.3v-23.9c-.41-.7-1.01-1.2-1.62-1.2ZM-126.27,416.29v3.8h-5.06v-3.8h5.06ZM-154.09,412.59h6.37v5h-6.37v-5ZM-140.23,436.29h-8.9v-7.5h8.9v7.5ZM-138.91,426.29h-15.28v-6.3h7.59c.71,0,1.32-.6,1.32-1.3v-6.3h11.43v5h-7.59c-1.62,0-1.62,2.5,0,2.5h7.59v6.3h-5.06v.1ZM-119.99,443.79h-3.84v-11.2h1.32c1.62,0,1.62-2.5,0-2.5h-2.53c-.71,0-1.31.6-1.31,1.3v12.5h-5.06v-21.3h11.43v21.2Z"/>
  </g>
  <g>
    <path class="st0" d="M-163.36,341.69h4.64c.45,1.32,1.69,2.2,3.12,2.2h6.69c1.78,0,3.39-1.5,3.39-3.35s-1.52-3.35-3.39-3.35h-4.64c-.45-1.32-1.69-2.2-3.12-2.2h-6.69c-1.78,0-3.39,1.5-3.39,3.35s1.52,3.35,3.39,3.35ZM-163.36,337.28h6.69c1.52,0,.71,2.2,2.23,2.2h5.62c1.43,0,1.43,2.2,0,2.2h-6.69c-1.52,0-.71-2.2-2.23-2.2h-5.62c-1.52,0-1.52-2.2,0-2.2Z"/>
    <path class="st0" d="M-189.04,348.3c3.03,0,5.62-2.47,5.62-5.55s-2.5-5.55-5.62-5.55-5.62,2.47-5.62,5.55,2.59,5.55,5.62,5.55ZM-189.04,339.49c1.78,0,3.39,1.5,3.39,3.35s-1.52,3.35-3.39,3.35-3.39-1.5-3.39-3.35,1.6-3.35,3.39-3.35Z"/>
    <path class="st0" d="M-146.69,384.7h-1.16v-7.76c0-.62-.53-1.15-1.16-1.15h-1.16v-8.81c0-.18-.09-.44-.18-.62l-2.23-3.35c-.45-.62-1.43-.62-1.87,0l-2.23,3.35c-.09.18-.18.35-.18.62v8.81h-1.16v-17.01l4.28,1.67c.71.26,1.52-.27,1.52-1.06v-4.85c0-.44-.27-.79-.62-.97l-18.28-9.52c-.36-.18-.71-.18-1.07,0l-18.72,9.61c-.36.18-.62.53-.62.97v4.85c0,.7.8,1.32,1.52,1.06l4.37-1.5v16.83h-1.16v-8.81c0-.18-.09-.44-.18-.62l-2.23-3.35c-.45-.62-1.43-.62-1.87,0l-2.23,3.35c-.09.18-.18.35-.18.62v8.81h-1.16c-.62,0-1.16.53-1.16,1.15v7.76h-1.16c-1.43,0-1.43,2.2,0,2.2h50.2c1.52-.09,1.52-2.29.09-2.29ZM-154.45,367.43l1.16-1.67,1.16,1.67v8.46h-2.23v-8.46h-.09ZM-167.46,379.15h-8.2v-9.17c0-2.2,1.87-4.05,4.1-4.05s4.1,1.85,4.1,4.05v9.17ZM-171.56,363.73c-3.48,0-6.33,2.82-6.33,6.26v9.17h-5.62v-20.98l11.86-5.2,11.59,4.94v21.33h-5.17v-9.25c0-3.44-2.85-6.26-6.33-6.26ZM-189.31,355.26l17.65-9.08,17.39,9.08v2.56l-4.28-1.67-12.66-5.38c-.27-.09-.62-.09-.89,0l-12.84,5.73-4.37,1.41v-2.64ZM-191.27,367.43l1.16-1.67,1.16,1.67v8.46h-2.23v-8.46h-.09ZM-193.5,384.7v-6.61h7.85v2.2c0,.62.53,1.15,1.16,1.15h25.68c.62,0,1.07-.53,1.07-1.15v-2.2h7.85v6.61h-43.6Z"/>
  </g>
  <path class="st0" d="M30,0C19.9,0,11.72,8.19,11.72,18.28c0,16.85,18.28,33.72,18.28,33.72,0,0,18.28-16.87,18.28-33.72C48.28,8.19,40.1,0,30,0ZM30,28.58c-5.68,0-10.29-4.61-10.29-10.29s4.61-10.29,10.29-10.29,10.29,4.61,10.29,10.29-4.61,10.29-10.29,10.29Z"/>
</svg>