<?xml version="1.0" encoding="UTF-8"?>
<svg id="_레이어_1" data-name="레이어_1" xmlns="http://www.w3.org/2000/svg" version="1.1" viewBox="0 0 60 52">
  <!-- Generator: Adobe Illustrator 30.4.0, SVG Export Plug-In . SVG Version: 2.1.4 Build 226)  -->
  <defs>
    <style>
      .st0 {
        fill: #ac4432;
      }
    </style>
  </defs>
  <g>
    <path class="st0" d="M50.84,10.88h-12.06c-.61,0-1.14.52-1.14,1.12v24.79c0,.6.52,1.12,1.14,1.12h12.06c.61,0,1.14-.52,1.14-1.12V12.01c-.09-.6-.61-1.12-1.14-1.12ZM44.29,22.8v-9.76h1.05v9.76h-1.05ZM49.7,24.96v1.12h-9.79v-1.12h9.79ZM49.7,28.16v1.12h-9.79v-1.12h9.79ZM39.92,31.44h9.79v1.04h-9.79v-1.04ZM49.7,22.8h-2.18v-9.76h2.18v9.76ZM39.92,13.04h2.18v9.76h-2.18v-9.76ZM39.92,35.76v-1.12h9.79v1.12h-9.79Z"/>
    <path class="st0" d="M55.21,6.56h-14.24V1.12c0-.6-.52-1.12-1.14-1.12h-17.48c-.61,0-1.14.52-1.14,1.12v29.2h-4.37c-.61,0-1.14.52-1.14,1.12v9.67c0,.6.52,1.12,1.14,1.12h1.14v7.52h-7.6v-3.97l3.06-4.06c.35-.52.26-1.12-.26-1.56s-1.14-.26-1.57.26l-1.31,1.73v-2.68l3.93-2.94c.52-.35.61-1.04.26-1.56-.35-.52-1.05-.6-1.57-.26l-3.15,2.33-.61-1.81c-.18-.6-.79-.86-1.4-.69-.61.17-.87.78-.7,1.38l1.05,3.11v.86l-2.62-1.99c-.52-.35-1.14-.26-1.57.26-.35.52-.26,1.12.26,1.55l3.93,2.94v7.08h-3.32c-.61,0-1.14.52-1.14,1.12s.52,1.12,1.14,1.12h50.42c.61,0,1.14-.52,1.14-1.12V7.69c-.09-.6-.61-1.12-1.14-1.12ZM38.78,2.25v4.32h-4.37c-.61,0-1.14.52-1.14,1.12v2.16h-4.37v-2.16c0-.6-.52-1.12-1.14-1.12h-4.37V2.25h15.38ZM48.66,46.56h-24.03v-1.12h24.03v1.12ZM24.63,48.72h24.03v1.04h-24.03v-1.04ZM48.66,43.28h-24.03v-1.12h24.12v1.12h-.09ZM26.81,9.85h-3.32v-1.12h3.32v1.12ZM28.99,16.33v-1.12h4.37v1.12h-4.37ZM33.36,18.48v1.04h-4.37v-1.12h4.37v.09ZM26.81,16.33h-3.32v-1.12h3.32v1.12ZM26.81,18.48v1.04h-3.32v-1.12h3.32v.09ZM26.81,21.68v1.12h-3.32v-1.12h3.32ZM28.99,21.68h4.37v1.12h-4.37v-1.12ZM33.36,13.04h-4.37v-1.12h4.37v1.12ZM26.81,13.04h-3.32v-1.12h3.32v1.12ZM23.49,24.96h3.32v1.12h-3.32v-1.12ZM28.99,24.96h4.37v1.12h-4.37v-1.12ZM33.36,28.16v2.16h-4.37v-2.16h4.37ZM23.49,28.16h3.32v2.16h-3.32v-2.16ZM18.07,32.48h15.29v7.6h-15.38v-7.6h.09ZM20.26,49.75v-7.6h2.18v7.6h-2.18ZM50.84,49.75v-8.64c0-.6-.52-1.12-1.14-1.12h-14.16V8.72h18.52v41.03h-3.23Z"/>
    <path class="st0" d="M7.67,12.01h.61c.26,1.21,1.4,2.16,2.71,2.16h5.5c1.49,0,2.71-1.21,2.71-2.68s-1.22-2.68-2.71-2.68h-2.8c-.26-1.21-1.4-2.16-2.71-2.16h-3.32c-1.49,0-2.71,1.21-2.71,2.68s1.22,2.68,2.71,2.68ZM7.67,8.72h3.32c.26,0,.52.26.52.52v.17c-.09.35-.09.69.18.95.17.26.52.43.87.43h3.93c.26,0,.52.26.52.52s-.26.52-.52.52h-5.5c-.26,0-.52-.26-.52-.52v-.17c.09-.35.09-.69-.17-.95-.17-.26-.52-.43-.87-.43h-1.75c-.26,0-.52-.26-.52-.52s.17-.52.52-.52Z"/>
  </g>
  <rect class="st0" x="-119.96" y="-43.35" width="100" height="100"/>
</svg>